<svg xmlns="http://www.w3.org/2000/svg" width="1618" height="312" viewBox="0 0 1618 312"><path fill="#348ec3" d="M542.82 129.83c-3.95 7.3-10.13 13.18-18.55 17.65s-19.03 6.7-31.84 6.7h-26.14v59.89H435V58.1h57.43c12.07 0 22.35 2.09 30.84 6.26s14.86 9.91 19.11 17.21 6.37 15.57 6.37 24.8c0 8.34-1.98 16.17-5.92 23.46Zm-32.51-6.82c4.17-3.94 6.26-9.5 6.26-16.65 0-15.19-8.49-22.79-25.47-22.79h-24.8v45.36h24.8c8.64 0 15.05-1.97 19.22-5.92ZM608.96 94.08c6.48-3.72 13.89-5.59 22.23-5.59v32.85h-8.27q-14.745 0-22.23 6.93c-4.99 4.62-7.49 12.66-7.49 24.13v61.68h-31.28V90.28h31.28v19.22q6.03-9.825 15.75-15.42ZM645.38 70.28c-3.65-3.5-5.47-7.86-5.47-13.07s1.82-9.57 5.47-13.07q5.475-5.25 13.74-5.25t13.74 5.25c3.65 3.5 5.47 7.86 5.47 13.07s-1.83 9.57-5.47 13.07q-5.475 5.25-13.74 5.25t-13.74-5.25m29.16 20v123.8h-31.28V90.28zM748.06 185.25l31.28-94.97h33.29l-45.81 123.8h-37.99l-45.59-123.8h33.52l31.28 94.97ZM820.8 118.44c4.99-9.68 11.77-17.13 20.33-22.35 8.57-5.21 18.14-7.82 28.72-7.82 9.23 0 17.32 1.86 24.24 5.59 6.93 3.73 12.48 8.42 16.65 14.08V90.29h31.51v123.8h-31.51v-18.1c-4.02 5.81-9.57 10.61-16.65 14.41s-15.23 5.7-24.47 5.7c-10.43 0-19.93-2.68-28.49-8.04-8.57-5.36-15.35-12.92-20.33-22.68-4.99-9.75-7.49-20.97-7.49-33.63s2.49-23.61 7.49-33.3Zm85.47 14.19c-2.98-5.44-7-9.61-12.07-12.51-5.07-2.91-10.5-4.36-16.31-4.36s-11.17 1.42-16.09 4.24c-4.92 2.83-8.9 6.97-11.95 12.4-3.06 5.44-4.58 11.88-4.58 19.33s1.53 13.97 4.58 19.55c3.05 5.59 7.07 9.87 12.07 12.85 4.99 2.98 10.31 4.47 15.98 4.47s11.25-1.45 16.31-4.36 9.08-7.07 12.07-12.51c2.98-5.44 4.47-11.95 4.47-19.55s-1.49-14.11-4.47-19.55ZM963.7 118.55c5.21-9.61 12.44-17.06 21.68-22.35 9.23-5.29 19.81-7.93 31.73-7.93 15.34 0 28.05 3.84 38.1 11.51s16.79 18.43 20.22 32.29h-33.74c-1.78-5.36-4.8-9.57-9.05-12.63-4.24-3.05-9.5-4.58-15.75-4.58-8.94 0-16.02 3.24-21.23 9.72-5.22 6.48-7.82 15.68-7.82 27.6s2.6 20.89 7.82 27.37c5.21 6.48 12.29 9.72 21.23 9.72 12.66 0 20.93-5.66 24.8-16.98h33.74c-3.43 13.41-10.2 24.06-20.33 31.96s-22.79 11.84-37.99 11.84c-11.92 0-22.5-2.64-31.73-7.93-9.24-5.29-16.46-12.74-21.68-22.35s-7.82-20.82-7.82-33.63 2.6-24.02 7.82-33.63M1207.93 90.28l-76.65 182.34h-33.3l26.82-61.68-49.61-120.67h35.08l31.95 86.48 32.4-86.48h33.3Z"/><path fill="#f4a70c" d="M1312.06 58.1v25.25h-65.03v40h49.83v24.8h-49.83v65.92h-31.28V58.1zM1327.37 70.28c-3.65-3.5-5.47-7.86-5.47-13.07s1.82-9.57 5.47-13.07q5.475-5.25 13.74-5.25t13.74 5.25c3.65 3.5 5.47 7.86 5.47 13.07s-1.83 9.57-5.47 13.07q-5.475 5.25-13.74 5.25t-13.74-5.25m29.16 20v123.8h-31.28V90.28zM1398.54 210.61c-8.04-3.65-14.41-8.6-19.11-14.86-4.69-6.26-7.26-13.19-7.71-20.78h31.51c.59 4.77 2.94 8.72 7.04 11.84 4.1 3.13 9.2 4.69 15.31 4.69s10.61-1.19 13.97-3.57c3.35-2.38 5.03-5.44 5.03-9.16 0-4.02-2.05-7.04-6.14-9.05-4.1-2.01-10.62-4.21-19.55-6.59-9.24-2.24-16.8-4.54-22.68-6.93-5.89-2.38-10.95-6.03-15.2-10.95-4.24-4.92-6.37-11.54-6.37-19.89 0-6.85 1.97-13.11 5.92-18.77 3.94-5.66 9.61-10.13 16.98-13.41 7.38-3.28 16.05-4.92 26.03-4.92 14.75 0 26.51 3.69 35.31 11.06 8.79 7.37 13.63 17.32 14.53 29.83h-29.94q-.675-7.38-6.15-11.73c-3.65-2.91-8.53-4.36-14.64-4.36-5.66 0-10.02 1.04-13.07 3.13s-4.58 4.99-4.58 8.71c0 4.17 2.08 7.34 6.26 9.5 4.17 2.16 10.65 4.36 19.44 6.59 8.94 2.23 16.31 4.55 22.12 6.93 5.81 2.39 10.84 6.07 15.08 11.06s6.44 11.59 6.59 19.78c0 7.15-1.98 13.56-5.92 19.22-3.95 5.66-9.61 10.09-16.98 13.3-7.38 3.2-15.98 4.8-25.81 4.8s-19.22-1.83-27.26-5.47ZM1586.02 94.64c7.3 4.1 13 10.13 17.1 18.1q6.15 11.955 6.15 28.71v72.62h-31.28v-68.38c0-9.83-2.46-17.39-7.37-22.68-4.92-5.29-11.62-7.93-20.11-7.93s-15.46 2.65-20.45 7.93c-4.99 5.29-7.49 12.85-7.49 22.68v68.38h-31.28V48.72h31.28v56.98c4.02-5.36 9.39-9.57 16.09-12.62s14.15-4.58 22.35-4.58c9.39 0 17.73 2.05 25.03 6.14Z"/><path fill="#062f49" d="M395.22 210.96c-.41-.35-.43-1.38-.36-2.08.75-6.82 1.9-13.62 2.25-20.45.4-7.93.13-15.88.06-23.81-.05-6.17-3.01-9.75-9.06-11.26-4.93-1.23-9.89-2.39-14.82-3.7-15.31-4.09-30.17-9.41-44.31-16.6-.8-.41-1.56-.93-2.45-1.46 1.11-.99 1.92-1.81 2.8-2.52 2.25-1.82 3.34-4.12 2.76-6.98-.57-2.93-2.84-4.04-5.41-4.75-3.21-.92-6.4-1.87-9.62-2.79-1.07-.31-1.68-.81-2-2.07-.75-2.97-1.54-6.02-2.87-8.75-1.86-3.77-1.56-6.92.75-10.43 2.5-3.79 4.47-7.96 6.58-12.02 2.21-4.17.52-8.74-3.63-9.81-1.1-.28-2.27-.25-3.41-.21-4.76.14-9.53.3-14.29.58-1.38.08-2.3-.37-3.19-1.36-2.43-2.68-4.9-5.32-7.42-7.9-.75-.76-1.1-1.43-.83-2.54.66-2.74 1.19-5.5 1.72-8.25.81-4.32 1.69-8.64 2.34-12.99.66-4.39-2.74-7.96-8.02-7.13-1.11.18-2.18.71-3.2 1.2-5.31 2.56-10.61 5.11-15.85 7.77-1.19.62-1.99.56-3.11-.12-3.3-2-6.66-3.94-10.11-5.69-1.36-.68-1.86-1.47-2.1-2.96-1.12-6.66-2.35-13.32-3.65-19.97-.67-3.43-3.08-5.21-6.57-5.27-2.32-.04-3.96 1.14-5.51 2.66-5.23 5.12-10.47 10.22-15.67 15.27-8.25-1.9-16.52-3.01-24.92-2.93-1.59.01-2.54-.46-3.43-1.79-3.23-4.83-6.58-9.58-9.9-14.34-.66-.94-1.34-1.88-2.17-2.66-4.21-3.99-9.9-2.84-12.31 2.49-.75 1.68-1.42 3.39-2.08 5.14-1.86 4.89-3.7 9.81-5.54 14.7-8.49 1.32-16.68 3.29-24.5 6.54-1.19.5-1.94.22-2.88-.41q-8.34-5.58-16.74-11.07c-2.45-1.6-5.12-1.99-7.74-.56-2.63 1.46-3.65 3.86-3.51 6.88.28 6.17.4 12.34.68 18.5.06 1.32-.32 2.12-1.33 2.89-3.9 3.02-7.87 5.96-11.57 9.22-1.9 1.65-3.45 1.94-5.82 1.12-5.55-1.92-11.19-3.59-16.88-5.09-3.79-1.01-7.56 1.69-7.81 5.42-.1 1.54.23 3.18.75 4.63 2.12 5.95 4.34 11.86 6.63 17.75.5 1.29.46 2.28-.14 3.47-1.9 3.77-3.95 7.49-5.46 11.41-.94 2.49-2.52 3.23-4.84 3.47-4.72.49-9.45 1.01-14.15 1.7-1.51.22-3.16.74-4.36 1.63-3.18 2.32-3.25 6.85-.37 10.03 3.79 4.17 7.59 8.35 11.45 12.47 1.14 1.21 1.81 2.28 1.54 4.16-.59 4.35-.76 8.76-1.26 13.14-.09.79-.8 1.7-1.48 2.19-3.99 2.89-8.04 5.69-12.08 8.52-2.48 1.72-3.67 4.09-3.2 7.05.44 2.79 2.39 4.4 5.03 5.2 3.11.93 6.18 2.04 9.35 2.74 3.06.67 4.53 1.94 4.96 5.42 1.03 8.56 3.6 16.78 6.74 25-.28-.21-.57-.41-.85-.61-7.4-5.24-15.3-9.24-24.43-10.55-9.44-1.33-16.6 2.45-19.92 11.38-4.29 11.57-2.38 22.5 4.36 32.64 1.76 2.62 3.89 5 5.85 7.49 3.03 3.85 4.26 8.13 3.69 13.08-.59 5.33-1.15 10.7-1.11 16.06.05 6.67 1.59 13.13 5.73 18.6 4.63 6.11 10.8 8.48 18.37 7.05 7.55-1.43 13.45-5.69 18.21-11.41 3.64-4.36 6.66-9.24 10.17-14.19.1-.01.27-.03.45 0 7.4.76 14.6.08 21.45-2.94 1.2-.53 1.76.14 2.5.77 6.21 5.24 12.75 10 19.96 13.79 1.83.97 2.71 2.25 3.1 4.17.99 5 2.04 9.99 3.15 14.96.7 3.12 2.68 5.14 5.83 5.74 2.62.49 4.83-.54 6.79-2.22 4.4-3.79 8.82-7.58 13.35-11.46 11.95 3.37 24.28 4.22 36.75 3.74 1.5-.06 2.41.46 3.39 1.5 3.89 4.09 7.8 8.17 11.85 12.09 3.5 3.38 8.45 2.66 11.02-1.48.65-1.05 1.07-2.22 1.54-3.36 1.57-3.82 3.12-7.64 4.66-11.46.45-1.14 1.02-1.85 2.36-2.16 12.4-2.85 23.66-8.35 34.17-15.42.77-.52 1.55-1.02 2.3-1.51 1.54 1.87 2.89 3.6 4.32 5.28 11.78 13.81 26.23 24.12 42.2 32.59 5.47 2.9 10.04 2.9 15.53.03 22.81-12 41.6-28.2 54.72-50.62.36-.61 1.01-1.33 1.64-1.46 5.38-1.16 9-4.6 11.93-8.95 4.39-6.53 7.23-13.71 8.08-21.53.7-6.49.03-12.7-5.54-17.32Zm-169.96 69.21c-1.02-1.92-2.04-3.86-3.06-5.8-.32 0-.62.03-.92.04-3.69 8.24-7.36 16.48-11.15 24.96-3.05-3.24-6.07-6.51-9.14-9.73-3.02-3.16-6.07-6.29-9.5-9.85-.46 2.09-.77 3.42-1.16 5.2-3.25 0-6.61.31-9.9-.06-6.82-.76-13.58-1.91-20.37-2.85-1.54-.21-2.58-.75-2.88-2.44-.13-.72-.72-1.36-1.32-2.41-1.37 1.02-2.61 1.81-3.69 2.78-4.32 3.89-8.6 7.83-12.89 11.76-.65.58-1.32 1.12-2.18 1.88-1.81-9.59-4.32-18.65-9.2-27.45-1.07 1.73-1.92 3.1-2.89 4.63-5.67-2.89-10.57-6.85-15.7-11.02 10.25-7.28 17.49-16.59 20.08-29.06.9-4.26.9-8.87-.15-11.62-.7 1.21-1.23 2.14-1.78 3.06-3.77 6.16-7.07 12.65-11.42 18.35-6 7.87-13.71 13.94-23.27 17.19-4.65 1.57-9.44 1.73-14.1 1.16 3.2-6.67 6.34-13.19 9.47-19.72l-.76-.56c-2.49 2.49-4.89 5.09-7.51 7.45-2.66 2.4-5.52 4.58-8.58 7.1-1.78-4.49-1.85-8.62-1.38-12.82 1.01-9.44 5.46-17.4 11.04-24.77 2.81-3.72 6.03-7.14 9.02-10.73.76-.89 1.38-1.88 1.88-3.03-6.38 1.01-10.83 5.14-15.61 9.27-8.38-12.95-14.44-26.62-16.78-41.77 1.11-.92 2.08-1.65 2.98-2.47.83-.76 1.57-1.6 2.56-2.61-7.38-1.97-14.41-3.85-21.88-5.85 1.1-.83 1.86-1.46 2.67-2.03 3.15-2.25 6.3-4.53 9.53-6.66 1.24-.8 1.85-1.73 1.95-3.16.37-4.84.84-9.66 1.27-14.48q.27-3.02 3.36-3.89c.23-.08.43-.25.88-.48-5.72-5.99-11.35-11.9-17.21-18.04 1.02-.23 1.82-.49 2.63-.58 4.9-.57 9.8-1.19 14.71-1.55 1.61-.13 2.31-.79 2.92-2.1 2.5-5.33 5.06-10.65 7.67-16.12 2.48 1.15 4.72 2.18 7.28 3.36-4.1-9.94-8.05-19.48-12.15-29.38 10.56 2.5 20.41 6.4 30.88 7.53.13-.15.25-.32.36-.49-1.55-1.94-3.11-3.9-4.79-5.99 3.36-2.7 6.71-5.38 10.2-8.17 1.96 2.18 3.63 4.58 6.71 5.69-.57-10.82-1.12-21.39-1.72-32.62 9.22 6.29 17.83 12.17 26.49 18.1 2.14-2.61.65-4.88.4-7.24 6.42-3.5 13.77-3.65 20.52-5.8 1.07 2.49 2.05 4.78 3.03 7.05.26-.03.5-.03.77-.05.45-.98 1.01-1.92 1.37-2.94 2.45-7.15 4.88-14.33 7.33-21.48.41-1.23.89-2.43 1.51-4.07 6.78 9.77 13.24 19.26 20.88 28.04 2.31-3.02 1.12-6.36 1.77-9.84 3.39.32 6.83.4 10.15 1.03 4.21.8 8.38 1.94 12.48 3.19 1.48.44 2.12-.21 2.94-1.02 4.85-4.87 9.72-9.73 14.59-14.6.61-.61 1.27-1.19 2.21-2.09 1.82 10.34 3.59 20.33 5.42 30.82 1.74-1.91 3.2-3.49 4.93-5.37 2.99 1.85 6.26 3.34 8.84 5.61 3.59 3.18 6.66 3.25 10.69.75 4.53-2.81 9.53-4.87 14.74-7.47-.86 4.48-1.64 8.51-2.45 12.53-.58 2.84-1.19 5.69-1.88 8.51-.32 1.32-.06 2.16.98 3.19 4.18 4.16 8.18 8.48 12.28 12.77-.92.81-1.6 1.42-2.75 2.43 7.76-.35 14.91-.67 22.52-1.02-2.26 4.09-4.34 7.94-6.47 11.75-1.12 1.99-3.15 3.87-3.3 5.91-.17 2.01 1.64 4.14 2.34 6.31 1.57 4.84 3.12 9.71 4.4 14.62.4 1.54 1.05 2.27 2.43 2.68 3.21.94 6.4 1.94 9.84 2.98-.54.46-.94.85-1.39 1.16-19.31 12.7-40.49 20.77-63.03 25.48-1.64.35-3.28.71-4.9 1.05-5.63 1.15-8.73 4.54-9.4 10.24-1.55 13.26-2.18 26.56-1.57 39.87 1.02 22.21 5.9 43.38 17.75 62.56-4.49 4.65-19.59 12.88-31.44 15.3Zm133.43-8.11c-11.29 13.33-25.32 23.04-40.81 30.82-.9.46-1.67.67-2.67.17-20.38-10.38-37.96-23.92-50.02-43.8-7.38-12.18-11.84-25.42-14.08-39.45-1.73-10.74-2.43-21.54-2.04-32.4.27-7.22.99-14.4 1.61-21.59.27-3.11.49-3.21 3.86-3.92 12.47-2.67 24.74-5.96 36.64-10.61 9.04-3.51 17.68-7.77 26.11-12.64 9.75 5.34 19.85 9.82 30.24 13.66 11.81 4.35 23.92 7.62 36.13 10.6.68.17 1.36.37 2.04.53.99.22 1.41.75 1.48 1.82.61 9.16.52 18.33-.43 27.47-.48 4.62-1.14 9.23-1.73 13.94h-10.56c2.34-11.44 2.84-22.96 2.38-34.66-4.13-1.05-8.22-2.04-12.28-3.15A253 253 0 0 1 319 151.66c-1.12-.54-2.04-1.02-3.38-.27-16.22 9.14-33.71 14.95-51.67 19.48-.93.23-1.86.5-3.01.83-.35 4.56-.8 9.1-1.02 13.67-.92 19.18.8 38 8.11 55.99 7.19 17.67 19.03 31.56 34.8 42.14 3.78 2.56 7.82 4.76 11.69 7.19 1.46.92 2.62.76 4.12-.04 17.54-9.41 32.02-22.05 41.95-39.54.08-.14.23-.25.44-.48 1.37 1.07 2.68 2.21 4.1 3.21 1.36.97 2.8 1.79 4.38 2.79-3.08 5.52-6.75 10.61-10.83 15.42ZM349 213.43c-2.04 9.71-8.07 15.73-17.67 17.72-4.69.96-9.59.92-14.42 1.21-2.44.14-4.89.03-7.53.03v26.31h-17.97v-79.83c.63-.06 1.32-.18 1.99-.18 9.42-.01 18.85-.1 28.28.05 3.24.06 6.52.46 9.67 1.16 9.41 2.1 16.17 9.54 17.76 19.1.79 4.83.9 9.66-.12 14.43Zm35.13 32.49c-2.74 3.58-4.79 4.12-8.96 2.26-5.32-2.38-9.72-5.78-11.35-11.73-1.1-3.98.52-6 4.66-6.25 3.76-.22 7.5-.57 11.23-.85.01-.25.01-.49.01-.72-1.97-.92-3.98-1.79-5.95-2.76-1.02-.49-2.05-1.02-2.96-1.69-1.6-1.19-1.94-2.89-1.54-4.74.4-1.79 1.78-2.59 3.42-2.89 4.47-.8 8.95-.71 13.35.4 4.1 1.03 5.81 3.2 5.67 7.42-.26 7.96-2.74 15.22-7.59 21.56Z"/><path fill="#ffc941" d="M391.72 224.37c-.26 7.96-2.74 15.22-7.59 21.56-2.74 3.58-4.79 4.12-8.96 2.26-5.32-2.38-9.72-5.78-11.35-11.73-1.1-3.98.52-6 4.66-6.25 3.76-.22 7.5-.57 11.23-.85.01-.25.01-.49.01-.72-1.97-.92-3.98-1.79-5.95-2.76-1.02-.49-2.05-1.02-2.96-1.69-1.6-1.19-1.94-2.89-1.54-4.74.4-1.79 1.78-2.59 3.42-2.89 4.47-.8 8.95-.71 13.35.4 4.1 1.03 5.81 3.2 5.67 7.42ZM349 213.45c-2.04 9.71-8.07 15.73-17.68 17.72-4.68.96-9.59.92-14.41 1.21-2.44.15-4.89.02-7.53.02v26.31h-17.96v-79.83c.63-.06 1.31-.18 1.98-.18 9.43 0 18.85-.1 28.28.06 3.24.06 6.52.46 9.67 1.16 9.41 2.11 16.17 9.54 17.76 19.11.8 4.82.9 9.65-.11 14.43Z"/><path fill="#348ec3" d="M386.77 192.72c-.48 4.63-1.15 9.22-1.74 13.95h-10.55c2.33-11.44 2.84-22.97 2.38-34.66-4.13-1.05-8.22-2.04-12.28-3.15-15.73-4.28-30.94-9.99-45.57-17.19-1.12-.55-2.03-1.03-3.38-.27-16.22 9.14-33.71 14.94-51.67 19.47-.93.24-1.86.52-3 .83-.35 4.56-.81 9.11-1.02 13.67-.91 19.18.8 38 8.11 55.99 7.19 17.68 19.02 31.57 34.79 42.15 3.79 2.55 7.82 4.75 11.7 7.18 1.45.91 2.61.77 4.11-.04 17.54-9.41 32.02-22.04 41.95-39.53.09-.15.23-.25.45-.49 1.36 1.07 2.68 2.21 4.1 3.22 1.35.96 2.8 1.8 4.37 2.79-3.08 5.52-6.75 10.61-10.83 15.42-11.29 13.33-25.33 23.04-40.82 30.83-.9.46-1.66.67-2.66.17-20.38-10.38-37.97-23.92-50.02-43.79-7.39-12.19-11.84-25.42-14.08-39.45-1.73-10.74-2.43-21.55-2.03-32.4.26-7.21.98-14.4 1.61-21.6.26-3.11.49-3.21 3.85-3.93 12.47-2.67 24.75-5.96 36.65-10.6 9.03-3.52 17.69-7.77 26.11-12.64 9.75 5.35 19.85 9.83 30.25 13.66 11.8 4.35 23.92 7.61 36.13 10.59.68.17 1.35.38 2.04.52.99.22 1.41.75 1.48 1.83.61 9.16.52 18.33-.42 27.47Z"/><path fill="#ffc941" d="M249.93 152.21c1.63-.33 3.27-.7 4.91-1.04 22.54-4.71 43.72-12.78 63.03-25.48.46-.31.86-.7 1.4-1.16-3.44-1.05-6.63-2.05-9.84-2.99-1.39-.41-2.03-1.15-2.43-2.67-1.28-4.93-2.83-9.8-4.4-14.64-.7-2.16-2.5-4.29-2.33-6.31.16-2.04 2.18-3.92 3.29-5.91 2.14-3.81 4.22-7.65 6.47-11.74-7.61.34-14.77.66-22.52 1.01 1.14-1 1.83-1.61 2.75-2.43-4.1-4.29-8.11-8.6-12.28-12.76-1.04-1.03-1.3-1.87-.97-3.19.69-2.82 1.29-5.67 1.88-8.5.82-4.02 1.58-8.06 2.46-12.54-5.22 2.6-10.21 4.67-14.74 7.47-4.02 2.51-7.09 2.43-10.69-.75-2.58-2.27-5.85-3.76-8.84-5.62-1.73 1.89-3.18 3.46-4.93 5.37-1.84-10.5-3.6-20.49-5.41-30.83-.95.9-1.6 1.49-2.22 2.1-4.87 4.86-9.73 9.73-14.59 14.6-.82.81-1.46 1.46-2.94 1.02-4.11-1.25-8.27-2.39-12.49-3.2-3.31-.63-6.74-.71-10.15-1.03-.64 3.47.54 6.82-1.76 9.85-7.64-8.79-14.11-18.27-20.89-28.04-.62 1.64-1.1 2.84-1.52 4.06-2.45 7.15-4.87 14.33-7.33 21.48-.36 1.02-.91 1.96-1.37 2.94-.26.02-.52.03-.78.05-.97-2.27-1.95-4.56-3.03-7.05-6.74 2.15-14.1 2.29-20.52 5.79.24 2.36 1.74 4.64-.41 7.25-8.66-5.93-17.27-11.82-26.48-18.11.59 11.24 1.15 21.81 1.72 32.62-3.08-1.11-4.75-3.51-6.72-5.69-3.48 2.78-6.83 5.47-10.2 8.16 1.68 2.1 3.24 4.05 4.79 6-.12.17-.23.33-.36.49-10.48-1.13-20.32-5.02-30.88-7.52 4.09 9.89 8.04 19.44 12.14 29.38-2.55-1.18-4.8-2.21-7.28-3.35-2.6 5.47-5.16 10.78-7.66 16.11-.61 1.31-1.31 1.98-2.93 2.1-4.91.37-9.81.99-14.7 1.56-.82.09-1.62.35-2.63.58 5.85 6.14 11.49 12.05 17.2 18.05-.45.23-.65.4-.88.47q-3.08.87-3.34 3.89c-.43 4.83-.89 9.65-1.27 14.48-.11 1.44-.71 2.36-1.94 3.17-3.24 2.13-6.38 4.41-9.53 6.66-.81.56-1.57 1.2-2.67 2.03 7.48 1.99 14.5 3.87 21.89 5.84-.98 1.01-1.73 1.85-2.56 2.6-.9.82-1.88 1.56-2.98 2.47 2.34 15.16 8.41 28.83 16.77 41.77 4.78-4.13 9.23-8.26 15.61-9.27-.5 1.15-1.13 2.15-1.89 3.04-2.99 3.59-6.2 7.01-9.02 10.72-5.58 7.38-10.03 15.34-11.04 24.77-.46 4.19-.4 8.33 1.39 12.81 3.05-2.51 5.92-4.69 8.58-7.09 2.61-2.36 5.01-4.96 7.51-7.44l.76.55c-3.14 6.53-6.27 13.05-9.48 19.72 4.66.56 9.45.42 14.09-1.16 9.57-3.26 17.27-9.32 23.28-17.19 4.35-5.71 7.66-12.21 11.42-18.36.55-.91 1.09-1.85 1.79-3.06 1.06 2.75 1.05 7.36.16 11.62-2.6 12.46-9.85 21.77-20.09 29.05 5.12 4.17 10.03 8.13 15.7 11.03.96-1.55 1.82-2.92 2.89-4.64 4.89 8.8 7.4 17.86 9.2 27.45.87-.76 1.55-1.3 2.19-1.88 4.3-3.93 8.57-7.87 12.9-11.77 1.08-.96 2.32-1.75 3.69-2.77.59 1.06 1.19 1.69 1.31 2.41.29 1.7 1.34 2.24 2.88 2.45 6.79.94 13.56 2.09 20.37 2.85 3.29.37 6.65.07 9.89.07.4-1.78.7-3.12 1.17-5.2 3.43 3.56 6.48 6.68 9.5 9.85 3.07 3.23 6.1 6.49 9.15 9.73 3.79-8.48 7.46-16.73 11.15-24.97.3 0 .6-.03.91-.04 1.03 1.94 2.05 3.88 3.07 5.8 11.85-2.42 26.94-10.65 31.43-15.3-11.84-19.18-16.73-40.35-17.74-62.56-.61-13.31.02-26.62 1.57-39.87.67-5.71 3.76-9.09 9.39-10.24ZM85.69 121.83c-3.98 4.08-10.41 3.4-13-1.5 3.74-3.29 8.17-2.74 13 1.5m4.23 57.43c-4.58 2.48-9.48 3.63-14.68 3.33-1.94-.12-2.46-.81-1.79-2.52 1.98-5.02 5.36-8.92 9.61-12.09.23.09.46.17.69.26-.73 2.61-1.47 5.22-2.36 8.43 3.29.44 6.45.86 9.88 1.32-.53.51-.88 1.01-1.36 1.26ZM221.05 84.1c.53-1.5 1.52-3.05 2.74-4.03 3.89-3.14 8.47-4.52 14.2-4.55 6.23.34 12.42 2.58 17.03 7.97 1.55 1.81 2.56 4.17 3.45 6.42.32.81-.45 2.04-.71 3.08-.93-.28-2.09-.3-2.77-.87-3.97-3.32-8.23-5.96-13.39-7.01-4.99-1.02-9.79-.4-14.53 1.24-1.07.37-2.15.83-3.27.95-2.19.25-3.5-1.15-2.75-3.21Zm-94.42 7.41c-.2.17-.38.37-.59.52-1.08.84-2.07 2.38-3.61 1.48-1.68-1-.85-2.75-.43-4.09 1.21-3.88 3.98-6.63 7.11-8.94 4.52-3.32 9.7-4.86 15.27-5 4.04.15 7.87 1 11.46 2.82 2.17 1.1 3.93 2.65 5.02 4.88.67 1.37.82 2.7-.24 3.94-1.03 1.21-2.17.6-3.38.24-3.27-.96-6.53-2.25-9.88-2.62-7.84-.88-14.7 1.82-20.73 6.77m12.79 52.56c-5.58-7.87-5.53-20.67.11-28.08 5.79-7.63 16.05-7.64 21.87-.02 3.4 4.45 4.62 8.36 4.57 15.28.25 4.09-.65 8.4-3.17 12.31-5.73 8.9-17.25 9.16-23.37.51Zm26.59 100.09c-1.72 5.83-5.5 9.93-10.91 12.53-2.27 1.1-2.8.88-3.97-1.31-2.43-4.57-4-9.38-3.78-14.64.05-1.12.3-2.23.46-3.34.17 0 .33-.03.5-.04 2.33 3.91 4.67 7.8 7.09 11.84 4.4-2.15 7.24-5.83 11.24-8.44-.19 1.14-.28 2.3-.61 3.4Zm54.01 11.44c-.68 3.37-1.76 3.98-5.02 2.87-4.97-1.7-9.23-4.32-11.29-9.51-.08-.2-.05-.47-.11-1.05 3.85 2.37 7.66 4.18 12.28 4.75.53-5.9.23-11.71-.02-17.59.31.17.64.24.73.44 3.14 6.36 4.87 12.97 3.42 20.09Zm9.38-89.01c-3.21 9.52-6.84 18.82-12.71 27.11-12.46 17.61-35.59 14.58-47.06 4.09-4.85-4.42-8.14-9.88-10.62-15.89-1.4-3.39-2.72-6.82-4.07-10.23-.19.03-.38 0-.52.08-1.31.69-2.98 1.9-4.01.54-.65-.86-.25-2.93.29-4.19 1.94-4.57 5.51-7.46 10.29-8.72.97-.25 2.37-.1 3.12.48.47.35.09 1.83.09 3.4 4.66 1.04 9.64 2.42 14.72 3.24 15.37 2.49 30.32.84 44.8-4.96.64-.26 1.33-.49 2.02-.55 2.37-.23 3.89 1.15 3.9 3.52 0 .7-.02 1.44-.24 2.09Zm-7.33-23.51c-2.99-4.83-3.67-10.22-3-15.77.55-4.51 1.92-8.72 5-12.27 6.15-7.09 16.1-5.53 20.99 1.74 2.76 4.1 3.65 8.71 3.5 13.42.15 4.93-.81 9.41-3.58 13.41-6.09 8.79-17.28 8.57-22.91-.53"/><path fill="#062f49" d="M229.64 164.49c0 .7-.02 1.44-.24 2.09-3.21 9.52-6.84 18.82-12.71 27.11-12.46 17.61-35.59 14.58-47.06 4.09-4.85-4.42-8.14-9.88-10.62-15.89-1.4-3.39-2.72-6.82-4.07-10.23-.19.03-.38 0-.52.08-1.31.69-2.98 1.9-4.01.54-.65-.86-.25-2.93.29-4.19 1.94-4.57 5.51-7.46 10.29-8.72.97-.25 2.37-.1 3.12.48.47.35.09 1.83.09 3.4 4.66 1.04 9.64 2.42 14.72 3.24 15.37 2.49 30.32.84 44.8-4.96.64-.26 1.33-.49 2.02-.55 2.37-.23 3.89 1.15 3.9 3.52ZM165.96 131.24c.05-6.92-1.17-10.83-4.57-15.28-5.82-7.62-16.08-7.61-21.87.02-5.64 7.41-5.69 20.21-.11 28.08 6.12 8.65 17.64 8.4 23.37-.51 2.52-3.92 3.42-8.22 3.17-12.31Zm-11.48-5.93c-2.03.11-3.83-1.79-3.88-4.11-.05-2.31 1.63-4.3 3.67-4.32 2.07-.04 3.73 1.86 3.71 4.24-.02 2.24-1.56 4.09-3.51 4.2ZM245.05 116.77c-4.89-7.27-14.84-8.83-20.99-1.74-3.07 3.55-4.44 7.76-5 12.27-.67 5.55 0 10.94 3 15.77 5.63 9.11 16.81 9.32 22.91.53 2.77-4 3.72-8.48 3.58-13.41.16-4.71-.74-9.32-3.5-13.42m-10.02 8.74c-2.07 0-3.49-1.63-3.53-4.05-.05-2.56 1.37-4.23 3.6-4.22 2.03 0 3.59 1.74 3.62 4.02.03 2.39-1.58 4.25-3.68 4.25ZM160.62 87.11c-1.03 1.21-2.17.6-3.38.24-3.27-.96-6.53-2.25-9.88-2.62-7.84-.88-14.7 1.82-20.73 6.77-.2.17-.38.37-.59.52-1.08.84-2.07 2.38-3.61 1.48-1.68-1-.85-2.75-.43-4.09 1.21-3.88 3.98-6.63 7.11-8.94 4.52-3.32 9.7-4.86 15.27-5 4.04.15 7.87 1 11.46 2.82 2.17 1.1 3.93 2.65 5.02 4.88.67 1.37.82 2.7-.24 3.94M257.75 92.99c-.93-.28-2.09-.3-2.77-.87-3.97-3.32-8.23-5.96-13.39-7.01-4.99-1.02-9.79-.4-14.53 1.24-1.07.37-2.15.83-3.27.95-2.19.25-3.5-1.15-2.75-3.21.53-1.5 1.52-3.05 2.74-4.03 3.89-3.14 8.47-4.52 14.2-4.55 6.23.34 12.42 2.58 17.03 7.97 1.55 1.81 2.56 4.17 3.45 6.42.32.81-.45 2.04-.71 3.08ZM166.62 240.75c-.19 1.14-.28 2.3-.61 3.4-1.72 5.83-5.5 9.93-10.91 12.53-2.27 1.1-2.8.88-3.97-1.31-2.43-4.57-4-9.38-3.78-14.64.05-1.12.3-2.23.46-3.34.17 0 .33-.03.5-.04 2.33 3.91 4.67 7.8 7.09 11.84 4.4-2.15 7.24-5.83 11.24-8.44ZM220.01 255.59c-.68 3.37-1.76 3.98-5.02 2.87-4.97-1.7-9.23-4.32-11.29-9.51-.08-.2-.05-.47-.11-1.05 3.85 2.37 7.66 4.18 12.28 4.75.53-5.9.23-11.71-.02-17.59.31.17.64.24.73.44 3.14 6.36 4.87 12.97 3.42 20.09ZM91.28 177.99c-.53.51-.88 1.01-1.36 1.26-4.58 2.48-9.48 3.63-14.68 3.33-1.94-.12-2.46-.81-1.79-2.52 1.98-5.02 5.36-8.92 9.61-12.09.23.09.46.17.69.26-.73 2.61-1.47 5.22-2.36 8.43 3.29.44 6.45.86 9.88 1.32ZM85.69 121.82c-3.98 4.08-10.41 3.4-13-1.5 3.74-3.29 8.17-2.74 13 1.5M309.38 217.24v-22.95c4.74 0 9.4-.26 14.03.07 5.2.36 8.41 3.8 8.97 9.38.23 2.22.01 4.61-.6 6.76-1.31 4.6-4.96 6.46-9.41 6.69-4.2.21-8.43.05-13 .05Z"/><path fill="#348ec3" d="M66.36 262.98c-2.89 5.66-6.66 10.6-12.05 14.1-1.33.86-2.84 1.55-4.34 2-4.43 1.34-8.01-.15-10.26-4.2-2.79-5.04-2.85-10.53-2.37-16.06.22-2.59.56-5.16.83-7.74.62-6.16-1.14-11.58-4.94-16.44-2.25-2.89-4.5-5.81-6.25-9-2.77-5.05-3.48-10.55-1.92-16.19 1.5-5.46 4.18-7.24 9.78-6.5 8.31 1.08 15.01 5.42 20.99 10.89 3.2 2.93 5.95 6.34 8.81 9.61.47.53.44 1.5.37 2.39-9.27-4.24-18.43-7.95-28.6-8.76 1.33.72 2.66 1.43 3.98 2.16 6.46 3.6 12.94 7.18 19.39 10.81 1.21.69 2.6 1.22 2.18 3.24-.45 2.09-1.99 1.54-3.23 1.66-4.4.43-8.82.76-13.23 1.15-.89.09-1.78.29-3.29.54 5.3 2.71 10.36 3.4 15.44 3.89 1.94.18 2.33.83 2.55 2.75.39 3.55-.95 5.91-3.36 8.36-3.52 3.57-6.58 7.58-9.84 11.41.17.24.35.48.53.71 4.69-2.76 9.38-5.53 14-8.26 1.6 1.91 3.29 3.85 4.86 5.87.26.34.19 1.17-.03 1.6Z"/><path fill="#ffc941" d="M205.45 193.11c-8.31 7.83-24.96 6.25-31.21-5.51 9.16-5.05 24.29-3.32 31.21 5.51"/></svg>