<svg xmlns="http://www.w3.org/2000/svg" id="Layer_2" data-name="Layer 2" viewBox="0 0 2061.02 385.85">
  <defs>
    <style>
      .cls-1 {
        fill: #062f49;
      }

      .cls-2 {
        fill: #348ec3;
      }

      .cls-3 {
        fill: #ffc941;
      }

      .cls-4 {
        fill: #f4a70c;
      }
    </style>
  </defs>
  <g id="Layer_1-2" data-name="Layer 1">
    <g>
      <g>
        <path fill="#348ec3" d="M 669.37 160.92 C 664.49 169.93 656.86 177.2 646.47 182.72 C 636.08 188.24 622.97 191 607.15 191 H 574.87 V 264.94 H 536.24 V 72.35 H 607.15 C 622.05 72.35 634.74 74.93 645.23 80.07 C 655.71 85.22 663.58 92.31 668.82 101.32 C 674.06 110.33 676.68 120.54 676.68 131.95 C 676.68 142.25 674.24 151.91 669.37 160.92 Z M 629.22 152.5 C 634.37 147.63 636.95 140.77 636.95 131.94 C 636.95 113.18 626.47 103.8 605.5 103.8 H 574.87 V 159.81 H 605.5 C 616.17 159.81 624.08 157.37 629.23 152.5 Z" />
        <path fill="#348ec3" d="M 751.04 116.77 C 759.04 112.17 768.19 109.87 778.49 109.87 V 150.43 H 768.28 C 756.14 150.43 746.99 153.28 740.83 158.98 C 734.66 164.68 731.59 174.62 731.59 188.78 V 264.93 H 692.96 V 112.08 H 731.59 V 135.81 C 736.56 127.72 743.04 121.37 751.04 116.77 Z" />
        <path fill="#348ec3" d="M 796.01 87.38 C 791.5 83.06 789.25 77.68 789.25 71.24 S 791.5 59.42 796.01 55.1 C 800.51 50.78 806.17 48.62 812.98 48.62 S 825.44 50.78 829.95 55.1 C 834.45 59.42 836.71 64.8 836.71 71.24 S 834.45 83.06 829.95 87.38 C 825.44 91.71 819.78 93.86 812.98 93.86 S 800.52 91.7 796.01 87.38 Z M 832.02 112.08 V 264.94 H 793.39 V 112.08 H 832.02 Z" />
        <path fill="#348ec3" d="M 922.79 229.34 L 961.42 112.08 H 1002.53 L 945.97 264.94 H 899.06 L 842.77 112.08 H 884.16 L 922.79 229.34 Z" />
        <path fill="#348ec3" d="M 1012.6 146.85 C 1018.76 134.89 1027.13 125.7 1037.71 119.26 C 1048.29 112.82 1060.1 109.6 1073.17 109.6 C 1084.57 109.6 1094.55 111.9 1103.11 116.5 C 1111.66 121.1 1118.51 126.89 1123.67 133.88 V 112.08 H 1162.57 V 264.94 H 1123.67 V 242.59 C 1118.7 249.76 1111.85 255.7 1103.11 260.38 C 1094.37 265.07 1084.3 267.42 1072.9 267.42 C 1060.02 267.42 1048.3 264.11 1037.72 257.49 C 1027.14 250.87 1018.77 241.53 1012.61 229.48 C 1006.45 217.44 1003.37 203.59 1003.37 187.96 S 1006.45 158.81 1012.61 146.85 Z M 1118.14 164.37 C 1114.46 157.66 1109.49 152.5 1103.24 148.92 C 1096.98 145.33 1090.27 143.54 1083.1 143.54 S 1069.3 145.29 1063.23 148.78 C 1057.16 152.28 1052.24 157.38 1048.47 164.09 C 1044.7 170.81 1042.81 178.76 1042.81 187.96 S 1044.69 205.2 1048.47 212.1 C 1052.24 219 1057.2 224.29 1063.37 227.96 C 1069.53 231.64 1076.11 233.48 1083.1 233.48 S 1096.99 231.69 1103.24 228.1 C 1109.49 224.51 1114.46 219.37 1118.14 212.65 C 1121.82 205.94 1123.66 197.89 1123.66 188.51 S 1121.82 171.08 1118.14 164.37 Z" />
        <path fill="#348ec3" d="M 1189.05 146.98 C 1195.49 135.11 1204.41 125.92 1215.81 119.39 C 1227.21 112.86 1240.27 109.6 1254.99 109.6 C 1273.93 109.6 1289.62 114.34 1302.03 123.81 C 1314.45 133.29 1322.76 146.57 1327 163.68 H 1285.34 C 1283.14 157.06 1279.41 151.86 1274.17 148.09 C 1268.93 144.32 1262.44 142.43 1254.72 142.43 C 1243.68 142.43 1234.95 146.43 1228.51 154.43 C 1222.07 162.43 1218.85 173.79 1218.85 188.51 S 1222.07 214.31 1228.51 222.31 C 1234.95 230.31 1243.69 234.31 1254.72 234.31 C 1270.35 234.31 1280.56 227.32 1285.35 213.34 H 1327.01 C 1322.78 229.89 1314.41 243.05 1301.9 252.8 C 1289.39 262.55 1273.76 267.42 1254.99 267.42 C 1240.27 267.42 1227.21 264.16 1215.81 257.63 C 1204.4 251.1 1195.48 241.9 1189.05 230.04 C 1182.61 218.18 1179.39 204.34 1179.39 188.52 S 1182.61 158.86 1189.05 146.99 Z" />
        <path fill="#348ec3" d="M 1490.62 112.08 L 1395.98 337.23 H 1354.87 L 1387.98 261.08 L 1326.73 112.09 H 1370.05 L 1409.51 218.87 L 1449.52 112.09 H 1490.63 Z" />
      <path data-added-dot="privacy-fish-dot" fill="#ffc941" d="M 1484.0722 260.93 C 1479.5622 256.61 1477.3122 251.23 1477.3122 244.79 S 1479.5622 232.97 1484.0722 228.65 C 1488.5722 224.33 1494.2322 222.17 1501.0422 222.17 S 1513.5022 224.33 1518.0122 228.65 C 1522.5122 232.97 1524.7722 238.35 1524.7722 244.79 S 1522.5122 256.61 1518.0122 260.93 C 1513.5022 265.26 1507.8422 267.41 1501.0422 267.41 S 1488.5822 265.25 1484.0722 260.93 Z" />
<path fill="#ffc941" d="M 1674.05 72.35 V 103.53 H 1593.76 V 152.92 H 1655.29 V 183.55 H 1593.76 V 264.95 H 1555.13 V 72.35 H 1674.05 Z" />
        <path fill="#ffc941" d="M 1692.95 87.38 C 1688.44 83.06 1686.19 77.68 1686.19 71.24 S 1688.44 59.42 1692.95 55.1 C 1697.45 50.78 1703.11 48.62 1709.92 48.62 S 1722.38 50.78 1726.89 55.1 C 1731.39 59.42 1733.65 64.8 1733.65 71.24 S 1731.39 83.06 1726.89 87.38 C 1722.38 91.71 1716.72 93.86 1709.92 93.86 S 1697.46 91.7 1692.95 87.38 Z M 1728.96 112.08 V 264.94 H 1690.33 V 112.08 H 1728.96 Z" />
        <path fill="#ffc941" d="M 1780.83 260.66 C 1770.9 256.16 1763.03 250.04 1757.24 242.31 C 1751.45 234.58 1748.27 226.03 1747.72 216.65 H 1786.62 C 1787.35 222.54 1790.25 227.41 1795.31 231.27 C 1800.37 235.13 1806.66 237.06 1814.21 237.06 S 1827.32 235.59 1831.45 232.65 C 1835.59 229.71 1837.66 225.94 1837.66 221.34 C 1837.66 216.37 1835.13 212.65 1830.07 210.16 C 1825.01 207.68 1816.96 204.96 1805.93 202.02 C 1794.52 199.26 1785.19 196.41 1777.92 193.47 C 1770.65 190.53 1764.4 186.02 1759.16 179.95 C 1753.92 173.88 1751.3 165.7 1751.3 155.39 C 1751.3 146.93 1753.73 139.21 1758.61 132.21 C 1763.48 125.22 1770.47 119.7 1779.58 115.66 C 1788.69 111.62 1799.4 109.59 1811.73 109.59 C 1829.94 109.59 1844.47 114.14 1855.32 123.25 C 1866.17 132.35 1872.15 144.63 1873.26 160.08 H 1836.29 C 1835.74 154.01 1833.21 149.18 1828.7 145.59 C 1824.19 142 1818.17 140.21 1810.63 140.21 C 1803.64 140.21 1798.26 141.5 1794.49 144.07 C 1790.72 146.65 1788.83 150.23 1788.83 154.83 C 1788.83 159.98 1791.4 163.89 1796.55 166.56 C 1801.7 169.23 1809.7 171.94 1820.55 174.7 C 1831.59 177.46 1840.69 180.31 1847.87 183.25 C 1855.04 186.2 1861.25 190.75 1866.5 196.91 C 1871.74 203.07 1874.45 211.21 1874.64 221.33 C 1874.64 230.16 1872.2 238.07 1867.33 245.06 C 1862.45 252.05 1855.46 257.52 1846.36 261.48 C 1837.25 265.43 1826.63 267.41 1814.49 267.41 S 1790.76 265.15 1780.83 260.65 Z" />
        <path fill="#ffc941" d="M 2012.32 117.46 C 2021.33 122.52 2028.37 129.97 2033.43 139.81 C 2038.49 149.65 2041.02 161.47 2041.02 175.26 V 264.93 H 2002.39 V 180.5 C 2002.39 168.36 1999.36 159.03 1993.29 152.49 C 1987.22 145.96 1978.94 142.7 1968.46 142.7 S 1949.37 145.97 1943.21 152.49 C 1937.05 159.02 1933.97 168.35 1933.97 180.5 V 264.93 H 1895.34 V 60.76 H 1933.97 V 131.12 C 1938.94 124.5 1945.56 119.3 1953.84 115.53 C 1962.12 111.76 1971.31 109.87 1981.43 109.87 C 1993.02 109.87 2003.32 112.4 2012.33 117.46 Z" />
      </g>
      <g>
        <path class="cls-1" d="m475.44,259.86c-.51-.43-.53-1.71-.45-2.57.92-8.42,2.34-16.81,2.77-25.25.49-9.79.16-19.6.08-29.41-.06-7.62-3.71-12.03-11.19-13.9-6.09-1.51-12.21-2.95-18.3-4.57-18.9-5.05-37.25-11.62-54.71-20.5-.99-.51-1.93-1.15-3.03-1.8,1.37-1.23,2.37-2.23,3.46-3.11,2.77-2.25,4.13-5.08,3.41-8.62-.7-3.62-3.51-4.99-6.68-5.87-3.97-1.13-7.91-2.31-11.87-3.44-1.32-.38-2.07-1-2.47-2.55-.92-3.67-1.9-7.43-3.54-10.81-2.3-4.65-1.93-8.54.92-12.88,3.09-4.69,5.51-9.83,8.13-14.84,2.73-5.15.64-10.79-4.48-12.11-1.35-.35-2.81-.3-4.21-.25-5.88.18-11.76.37-17.64.72-1.71.1-2.84-.46-3.94-1.67-3-3.32-6.06-6.57-9.16-9.75-.92-.94-1.35-1.77-1.02-3.14.81-3.38,1.47-6.79,2.12-10.18,1-5.34,2.09-10.66,2.88-16.03.81-5.42-3.38-9.83-9.9-8.8-1.37.22-2.69.88-3.95,1.48-6.55,3.16-13.1,6.31-19.57,9.59-1.47.76-2.45.69-3.84-.14-4.08-2.47-8.22-4.86-12.48-7.03-1.67-.84-2.3-1.82-2.6-3.65-1.39-8.22-2.9-16.45-4.51-24.66-.83-4.24-3.81-6.44-8.11-6.5-2.87-.05-4.89,1.4-6.81,3.28-6.45,6.33-12.93,12.62-19.35,18.85-10.18-2.34-20.4-3.71-30.78-3.62-1.96.02-3.14-.57-4.24-2.22-3.98-5.96-8.13-11.83-12.22-17.71-.81-1.16-1.66-2.33-2.68-3.28-5.2-4.92-12.22-3.51-15.2,3.08-.92,2.07-1.75,4.19-2.57,6.34-2.3,6.04-4.57,12.11-6.84,18.15-10.49,1.63-20.59,4.06-30.25,8.08-1.47.62-2.39.27-3.55-.51-6.87-4.59-13.75-9.15-20.67-13.67-3.03-1.98-6.33-2.45-9.56-.69-3.25,1.8-4.51,4.77-4.34,8.49.35,7.62.49,15.24.84,22.84.08,1.63-.4,2.61-1.64,3.57-4.81,3.73-9.72,7.36-14.28,11.38-2.34,2.04-4.26,2.39-7.19,1.39-6.85-2.37-13.82-4.43-20.85-6.28-4.69-1.24-9.34,2.09-9.64,6.69-.13,1.9.29,3.92.92,5.72,2.61,7.35,5.36,14.65,8.19,21.91.62,1.59.57,2.82-.18,4.29-2.34,4.65-4.88,9.24-6.74,14.09-1.16,3.08-3.11,3.98-5.98,4.29-5.83.61-11.67,1.24-17.47,2.1-1.86.27-3.9.91-5.39,2.01-3.92,2.87-4.02,8.46-.46,12.38,4.69,5.15,9.37,10.31,14.14,15.4,1.4,1.5,2.23,2.82,1.9,5.13-.73,5.37-.94,10.82-1.56,16.22-.11.97-.99,2.1-1.83,2.71-4.92,3.57-9.93,7.03-14.92,10.52-3.06,2.12-4.53,5.05-3.95,8.7.54,3.44,2.95,5.43,6.22,6.42,3.84,1.15,7.63,2.52,11.54,3.38,3.78.83,5.59,2.39,6.12,6.69,1.28,10.57,4.45,20.72,8.32,30.87-.35-.26-.7-.51-1.05-.75-9.13-6.47-18.89-11.41-30.17-13.02-11.65-1.64-20.5,3.03-24.59,14.06-5.29,14.28-2.93,27.78,5.39,40.31,2.17,3.24,4.8,6.17,7.22,9.24,3.75,4.75,5.26,10.04,4.56,16.14-.73,6.58-1.42,13.21-1.37,19.83.06,8.24,1.96,16.21,7.08,22.97,5.72,7.54,13.34,10.47,22.68,8.7,9.32-1.77,16.61-7.03,22.49-14.09,4.49-5.39,8.22-11.41,12.56-17.52.13-.02.33-.03.56,0,9.13.94,18.03.1,26.49-3.63,1.48-.65,2.17.18,3.09.96,7.67,6.47,15.75,12.35,24.64,17.02,2.26,1.2,3.35,2.77,3.83,5.15,1.23,6.17,2.52,12.34,3.89,18.47.86,3.86,3.32,6.34,7.2,7.09,3.24.61,5.96-.67,8.38-2.74,5.43-4.69,10.89-9.36,16.48-14.15,14.76,4.16,29.98,5.21,45.37,4.62,1.85-.08,2.98.57,4.19,1.85,4.8,5.05,9.63,10.09,14.63,14.93,4.32,4.18,10.44,3.28,13.61-1.83.8-1.29,1.32-2.74,1.9-4.14,1.94-4.72,3.86-9.44,5.75-14.15.56-1.4,1.26-2.28,2.92-2.66,15.32-3.52,29.21-10.31,42.19-19.05.96-.64,1.91-1.26,2.84-1.86,1.9,2.31,3.57,4.45,5.34,6.52,14.55,17.05,32.39,29.79,52.1,40.24,6.76,3.59,12.4,3.59,19.17.03,28.16-14.82,51.37-34.82,67.56-62.51.45-.75,1.24-1.64,2.02-1.8,6.65-1.43,11.11-5.67,14.73-11.04,5.42-8.06,8.93-16.93,9.98-26.58.86-8.02.03-15.68-6.84-21.39Zm-209.85,85.46c-1.26-2.37-2.52-4.77-3.78-7.16-.4,0-.76.03-1.13.05-4.56,10.17-9.08,20.35-13.77,30.82-3.76-4-7.49-8.03-11.28-12.02-3.73-3.9-7.49-7.76-11.73-12.16-.57,2.58-.96,4.22-1.43,6.42-4.02,0-8.16.38-12.22-.08-8.42-.94-16.77-2.36-25.15-3.52-1.9-.26-3.19-.92-3.55-3.01-.16-.89-.89-1.67-1.63-2.98-1.69,1.26-3.22,2.23-4.56,3.43-5.34,4.8-10.61,9.67-15.92,14.52-.8.72-1.63,1.39-2.69,2.33-2.23-11.84-5.34-23.03-11.36-33.9-1.32,2.14-2.37,3.83-3.57,5.72-7-3.57-13.05-8.46-19.38-13.61,12.65-8.99,21.6-20.48,24.8-35.88,1.12-5.26,1.12-10.95-.19-14.34-.86,1.5-1.51,2.65-2.2,3.78-4.65,7.6-8.73,15.62-14.1,22.66-7.41,9.72-16.93,17.21-28.74,21.23-5.74,1.94-11.65,2.14-17.4,1.43,3.95-8.24,7.83-16.29,11.7-24.35l-.94-.69c-3.08,3.08-6.04,6.28-9.28,9.2-3.28,2.96-6.82,5.66-10.6,8.77-2.2-5.55-2.28-10.65-1.71-15.83,1.24-11.65,6.74-21.48,13.63-30.58,3.47-4.59,7.44-8.81,11.14-13.24.94-1.1,1.71-2.33,2.33-3.75-7.87,1.24-13.37,6.34-19.27,11.44-10.34-15.99-17.83-32.86-20.72-51.57,1.37-1.13,2.57-2.04,3.68-3.04,1.02-.94,1.94-1.98,3.16-3.22-9.12-2.44-17.79-4.75-27.01-7.22,1.35-1.02,2.3-1.8,3.3-2.5,3.89-2.77,7.78-5.59,11.76-8.22,1.53-.99,2.28-2.14,2.41-3.9.46-5.98,1.04-11.92,1.56-17.88q.33-3.73,4.14-4.8c.29-.1.53-.3,1.08-.59-7.06-7.4-14.01-14.69-21.25-22.28,1.26-.29,2.25-.61,3.25-.72,6.06-.7,12.1-1.47,18.17-1.91,1.99-.16,2.85-.97,3.6-2.6,3.09-6.58,6.25-13.15,9.47-19.91,3.06,1.42,5.83,2.69,8.99,4.14-5.07-12.27-9.95-24.05-15-36.27,13.04,3.09,25.2,7.91,38.12,9.29.16-.19.3-.4.45-.61-1.91-2.39-3.84-4.81-5.91-7.4,4.14-3.33,8.29-6.65,12.59-10.09,2.42,2.69,4.48,5.66,8.29,7.03-.7-13.36-1.39-26.41-2.12-40.27,11.38,7.76,22.01,15.03,32.7,22.34,2.65-3.22.8-6.02.49-8.94,7.92-4.32,17.01-4.51,25.34-7.16,1.32,3.08,2.53,5.9,3.75,8.7.32-.03.62-.03.96-.06.56-1.21,1.24-2.37,1.69-3.63,3.03-8.83,6.02-17.69,9.05-26.52.51-1.51,1.1-3,1.86-5.02,8.37,12.06,16.35,23.78,25.79,34.62,2.85-3.73,1.39-7.86,2.18-12.14,4.19.4,8.43.49,12.53,1.28,5.2.99,10.34,2.39,15.41,3.94,1.83.54,2.61-.26,3.63-1.26,5.99-6.01,12-12.02,18.01-18.03.75-.75,1.56-1.47,2.73-2.58,2.25,12.77,4.43,25.1,6.69,38.06,2.15-2.36,3.95-4.3,6.09-6.63,3.7,2.28,7.73,4.13,10.92,6.93,4.43,3.92,8.22,4.02,13.2.92,5.59-3.47,11.76-6.01,18.2-9.23-1.07,5.53-2.02,10.5-3.03,15.48-.72,3.51-1.47,7.03-2.33,10.5-.4,1.63-.08,2.66,1.21,3.94,5.16,5.13,10.1,10.47,15.16,15.76-1.13,1-1.98,1.75-3.39,3,9.58-.43,18.41-.83,27.81-1.26-2.79,5.05-5.36,9.8-7.98,14.5-1.39,2.45-3.89,4.78-4.08,7.3-.21,2.49,2.02,5.12,2.88,7.79,1.94,5.98,3.86,11.99,5.43,18.06.49,1.9,1.29,2.81,3,3.32,3.97,1.16,7.91,2.39,12.14,3.68-.67.57-1.16,1.05-1.72,1.43-23.84,15.68-50,25.64-77.82,31.46-2.02.43-4.05.88-6.06,1.29-6.95,1.42-10.77,5.61-11.6,12.64-1.91,16.37-2.69,32.8-1.94,49.23,1.26,27.43,7.28,53.57,21.91,77.25-5.55,5.74-24.19,15.91-38.82,18.89Zm164.75-10.01c-13.95,16.46-31.27,28.45-50.4,38.06-1.12.57-2.06.83-3.3.21-25.17-12.81-46.87-29.53-61.76-54.08-9.12-15.05-14.61-31.38-17.39-48.71-2.14-13.26-3-26.6-2.52-40,.33-8.91,1.23-17.79,1.99-26.66.33-3.84.61-3.97,4.77-4.85,15.4-3.3,30.55-7.36,45.25-13.1,11.16-4.34,21.83-9.59,32.24-15.6,12.03,6.6,24.51,12.13,37.34,16.86,14.58,5.37,29.53,9.4,44.61,13.08.84.21,1.67.46,2.52.65,1.23.27,1.74.92,1.83,2.25.75,11.32.64,22.63-.53,33.92-.59,5.71-1.4,11.4-2.14,17.21h-13.04c2.88-14.12,3.51-28.35,2.93-42.79-5.1-1.29-10.15-2.52-15.16-3.89-19.43-5.28-38.19-12.34-56.26-21.23-1.39-.67-2.52-1.26-4.18-.33-20.03,11.28-41.63,18.46-63.8,24.05-1.15.29-2.3.62-3.71,1.02-.43,5.63-.99,11.24-1.26,16.88-1.13,23.68.99,46.92,10.01,69.14,8.88,21.82,23.49,38.97,42.97,52.04,4.67,3.16,9.66,5.88,14.44,8.88,1.8,1.13,3.24.94,5.08-.05,21.66-11.62,39.54-27.22,51.8-48.82.1-.18.29-.3.54-.59,1.69,1.32,3.32,2.73,5.07,3.97,1.67,1.2,3.46,2.22,5.4,3.44-3.81,6.82-8.34,13.1-13.37,19.05Zm-11.97-72.39c-2.52,11.99-9.96,19.43-21.82,21.88-5.79,1.18-11.84,1.13-17.8,1.5-3.01.18-6.04.03-9.29.03v32.48h-22.19v-98.58c.78-.08,1.63-.22,2.45-.22,11.63-.02,23.27-.13,34.92.06,4,.08,8.05.57,11.94,1.43,11.62,2.6,19.97,11.78,21.93,23.59.97,5.96,1.12,11.92-.14,17.82Zm43.38,40.12c-3.38,4.41-5.91,5.08-11.06,2.79-6.57-2.93-12-7.14-14.01-14.49-1.35-4.91.64-7.41,5.75-7.71,4.64-.27,9.26-.7,13.87-1.05.02-.3.02-.61.02-.89-2.44-1.13-4.91-2.22-7.35-3.41-1.26-.61-2.53-1.26-3.65-2.09-1.98-1.47-2.39-3.57-1.9-5.85.49-2.22,2.2-3.2,4.22-3.57,5.51-.99,11.04-.88,16.48.49,5.07,1.28,7.17,3.95,7,9.16-.32,9.83-3.38,18.79-9.37,26.62Z" />
        <path class="cls-3" d="m471.12,276.42c-.32,9.83-3.38,18.79-9.37,26.62-3.38,4.41-5.91,5.08-11.06,2.79-6.57-2.93-12-7.14-14.01-14.49-1.35-4.91.64-7.41,5.75-7.71,4.64-.27,9.26-.7,13.87-1.05.02-.3.02-.61.02-.89-2.44-1.13-4.91-2.22-7.35-3.41-1.26-.61-2.53-1.26-3.65-2.09-1.98-1.47-2.39-3.57-1.9-5.85.49-2.22,2.2-3.2,4.22-3.57,5.51-.99,11.04-.88,16.48.49,5.07,1.28,7.17,3.95,7,9.16Z" />
        <path class="cls-3" d="m418.37,262.92c-2.52,11.99-9.96,19.43-21.83,21.88-5.78,1.19-11.84,1.14-17.8,1.5-3.01.18-6.04.02-9.3.02v32.49h-22.18v-98.57c.78-.07,1.62-.23,2.45-.23,11.64-.01,23.28-.12,34.92.07,4,.07,8.05.56,11.94,1.43,11.62,2.6,19.97,11.78,21.92,23.59.98,5.95,1.12,11.92-.13,17.82Z" />
        <path class="cls-2" d="m465.01,237.34c-.59,5.71-1.42,11.39-2.15,17.22h-13.03c2.88-14.12,3.5-28.36,2.94-42.79-5.1-1.3-10.15-2.52-15.16-3.89-19.43-5.28-38.2-12.34-56.27-21.23-1.38-.68-2.51-1.27-4.18-.34-20.03,11.28-41.62,18.44-63.79,24.04-1.15.3-2.29.64-3.71,1.02-.43,5.63-1,11.24-1.26,16.88-1.13,23.68.98,46.92,10.01,69.13,8.88,21.83,23.48,38.98,42.96,52.05,4.68,3.14,9.66,5.87,14.45,8.87,1.79,1.13,3.23.95,5.08-.05,21.66-11.62,39.54-27.22,51.79-48.81.11-.18.29-.31.55-.6,1.68,1.32,3.31,2.72,5.06,3.97,1.67,1.19,3.46,2.22,5.4,3.44-3.8,6.82-8.34,13.1-13.37,19.04-13.94,16.46-31.27,28.45-50.4,38.07-1.12.56-2.05.83-3.29.2-25.17-12.82-46.89-29.53-61.77-54.07-9.12-15.05-14.62-31.38-17.39-48.71-2.14-13.26-3-26.61-2.51-40.01.32-8.9,1.21-17.78,1.99-26.67.32-3.84.6-3.96,4.75-4.85,15.4-3.3,30.57-7.36,45.25-13.09,11.15-4.34,21.84-9.59,32.25-15.61,12.04,6.6,24.5,12.13,37.35,16.87,14.57,5.38,29.53,9.4,44.61,13.08.84.2,1.67.47,2.52.65,1.22.28,1.74.92,1.82,2.26.76,11.32.65,22.63-.52,33.91Z" />
        <path class="cls-3" d="m296.04,187.31c2.02-.41,4.03-.86,6.06-1.28,27.83-5.82,53.98-15.78,77.82-31.47.56-.38,1.06-.86,1.73-1.43-4.25-1.3-8.18-2.53-12.14-3.7-1.72-.5-2.51-1.42-3-3.3-1.58-6.08-3.49-12.1-5.44-18.07-.86-2.66-3.08-5.29-2.88-7.79.19-2.52,2.69-4.84,4.07-7.3,2.64-4.7,5.21-9.44,7.99-14.5-9.4.42-18.24.82-27.81,1.25,1.4-1.24,2.26-1.99,3.4-3-5.06-5.29-10.01-10.62-15.17-15.76-1.28-1.27-1.61-2.3-1.2-3.94.85-3.48,1.6-7,2.32-10.5,1.01-4.97,1.96-9.95,3.04-15.48-6.44,3.22-12.61,5.76-18.2,9.23-4.97,3.1-8.76,3-13.2-.92-3.18-2.81-7.22-4.64-10.92-6.94-2.14,2.33-3.92,4.27-6.08,6.64-2.27-12.96-4.44-25.3-6.68-38.07-1.18,1.12-1.98,1.84-2.74,2.59-6.01,6-12.01,12.01-18.01,18.02-1.01,1-1.8,1.8-3.62,1.26-5.08-1.55-10.21-2.95-15.42-3.95-4.09-.78-8.33-.88-12.53-1.27-.79,4.28.67,8.42-2.17,12.16-9.43-10.85-17.42-22.56-25.79-34.62-.77,2.03-1.36,3.5-1.87,5.02-3.02,8.83-6.01,17.69-9.05,26.52-.44,1.26-1.13,2.42-1.69,3.64-.32.02-.64.04-.96.06-1.2-2.81-2.41-5.63-3.74-8.7-8.33,2.65-17.41,2.83-25.33,7.15.3,2.92,2.15,5.72-.5,8.95-10.69-7.32-21.32-14.59-32.7-22.36.73,13.87,1.42,26.93,2.12,40.27-3.8-1.37-5.87-4.33-8.29-7.02-4.3,3.43-8.44,6.76-12.59,10.08,2.08,2.59,4,5,5.92,7.4-.14.2-.29.41-.44.6-12.94-1.39-25.09-6.19-38.13-9.29,5.05,12.22,9.92,24,14.99,36.28-3.14-1.45-5.93-2.72-8.99-4.14-3.22,6.76-6.37,13.31-9.46,19.9-.76,1.62-1.62,2.45-3.61,2.59-6.06.46-12.11,1.22-18.16,1.92-1.01.11-2,.43-3.25.72,7.22,7.58,14.18,14.88,21.24,22.28-.55.29-.8.49-1.09.58q-3.8,1.08-4.13,4.8c-.53,5.96-1.1,11.92-1.57,17.88-.13,1.78-.88,2.92-2.4,3.91-4,2.63-7.87,5.45-11.77,8.22-1,.7-1.94,1.48-3.3,2.51,9.24,2.46,17.9,4.78,27.03,7.21-1.21,1.25-2.14,2.28-3.16,3.22-1.12,1.01-2.32,1.92-3.68,3.05,2.89,18.72,10.38,35.59,20.71,51.58,5.9-5.1,11.4-10.2,19.27-11.45-.61,1.42-1.39,2.65-2.33,3.76-3.7,4.43-7.66,8.65-11.14,13.24-6.89,9.11-12.38,18.94-13.63,30.59-.56,5.17-.49,10.28,1.72,15.82,3.77-3.1,7.31-5.8,10.6-8.76,3.23-2.92,6.19-6.12,9.28-9.19l.94.68c-3.88,8.06-7.74,16.12-11.7,24.35,5.75.7,11.66.52,17.4-1.43,11.82-4.02,21.32-11.51,28.74-21.23,5.38-7.04,9.46-15.07,14.1-22.67.68-1.13,1.34-2.28,2.21-3.78,1.31,3.4,1.3,9.08.19,14.35-3.22,15.38-12.16,26.88-24.8,35.87,6.32,5.15,12.38,10.04,19.38,13.62,1.19-1.91,2.24-3.6,3.56-5.72,6.04,10.86,9.13,22.06,11.36,33.89,1.08-.94,1.91-1.61,2.7-2.32,5.3-4.85,10.58-9.72,15.92-14.53,1.33-1.19,2.87-2.16,4.56-3.42.73,1.31,1.46,2.09,1.62,2.98.36,2.1,1.66,2.76,3.55,3.02,8.39,1.16,16.74,2.58,25.15,3.52,4.06.46,8.21.08,12.22.08.49-2.2.86-3.85,1.44-6.42,4.24,4.39,8,8.24,11.72,12.16,3.79,3.98,7.54,8.02,11.29,12.01,4.68-10.48,9.22-20.65,13.76-30.83.37-.01.74-.04,1.13-.05,1.27,2.4,2.53,4.79,3.79,7.16,14.63-2.99,33.27-13.15,38.81-18.89-14.62-23.68-20.65-49.83-21.9-77.25-.76-16.44.02-32.87,1.94-49.23.83-7.04,4.64-11.22,11.59-12.65Zm-202.8-37.51c-4.91,5.04-12.85,4.2-16.06-1.85,4.62-4.07,10.09-3.38,16.06,1.85Zm5.22,70.91c-5.65,3.06-11.7,4.48-18.12,4.12-2.4-.14-3.04-1-2.21-3.11,2.45-6.19,6.61-11.02,11.87-14.93.29.11.56.22.85.32-.9,3.23-1.81,6.44-2.92,10.4,4.06.54,7.97,1.06,12.2,1.63-.66.62-1.09,1.25-1.68,1.56Zm161.91-117.5c.66-1.85,1.87-3.77,3.38-4.98,4.8-3.88,10.46-5.58,17.53-5.62,7.69.42,15.34,3.18,21.02,9.84,1.91,2.23,3.16,5.15,4.26,7.93.4,1-.55,2.52-.88,3.8-1.15-.35-2.58-.37-3.42-1.08-4.9-4.1-10.16-7.36-16.54-8.65-6.16-1.26-12.08-.49-17.94,1.54-1.32.46-2.65,1.02-4.03,1.18-2.7.31-4.32-1.42-3.4-3.96Zm-116.58,9.14c-.25.22-.47.46-.73.65-1.33,1.03-2.56,2.94-4.45,1.82-2.08-1.24-1.04-3.4-.53-5.05,1.49-4.79,4.91-8.18,8.78-11.04,5.58-4.1,11.98-6,18.85-6.17,4.99.18,9.72,1.24,14.15,3.48,2.68,1.36,4.85,3.28,6.2,6.02.83,1.69,1.01,3.34-.3,4.86-1.27,1.49-2.68.74-4.18.3-4.03-1.19-8.06-2.77-12.2-3.24-9.68-1.09-18.16,2.24-25.6,8.36Zm15.79,64.9c-6.89-9.72-6.83-25.53.13-34.67,7.15-9.42,19.81-9.43,27-.02,4.2,5.5,5.7,10.32,5.64,18.86.31,5.05-.8,10.37-3.91,15.2-7.08,10.99-21.3,11.3-28.86.62Zm32.83,123.58c-2.12,7.2-6.79,12.26-13.48,15.47-2.81,1.36-3.46,1.09-4.9-1.62-3-5.64-4.94-11.58-4.67-18.07.06-1.38.37-2.75.56-4.13.2-.01.41-.04.61-.05,2.88,4.82,5.77,9.64,8.75,14.62,5.44-2.65,8.94-7.2,13.87-10.42-.24,1.4-.35,2.84-.76,4.2Zm66.69,14.12c-.84,4.16-2.17,4.92-6.19,3.54-6.13-2.1-11.4-5.33-13.94-11.74-.1-.25-.06-.58-.13-1.3,4.75,2.93,9.46,5.16,15.17,5.87.66-7.28.29-14.46-.02-21.72.38.22.79.3.9.54,3.88,7.85,6.01,16.02,4.22,24.81Zm11.58-109.9c-3.96,11.76-8.45,23.23-15.7,33.47-15.38,21.74-43.95,18-58.11,5.05-5.99-5.46-10.06-12.2-13.12-19.62-1.73-4.19-3.36-8.42-5.03-12.64-.24.04-.47,0-.64.1-1.62.85-3.68,2.34-4.96.67-.8-1.06-.31-3.61.36-5.17,2.4-5.64,6.8-9.22,12.71-10.76,1.2-.31,2.93-.12,3.85.59.58.43.11,2.26.11,4.2,5.75,1.28,11.9,2.99,18.18,4,18.97,3.07,37.44,1.03,55.32-6.12.79-.32,1.64-.6,2.5-.68,2.93-.29,4.8,1.42,4.81,4.34,0,.86-.02,1.78-.3,2.58Zm-9.05-29.03c-3.7-5.96-4.54-12.62-3.71-19.48.68-5.57,2.38-10.76,6.17-15.14,7.6-8.76,19.88-6.83,25.92,2.15,3.41,5.06,4.51,10.75,4.32,16.57.18,6.08-1,11.62-4.42,16.56-7.52,10.85-21.34,10.58-28.29-.66Z" />
        <path class="cls-1" d="m270.98,202.48c0,.86-.02,1.78-.3,2.58-3.96,11.76-8.45,23.23-15.7,33.47-15.38,21.74-43.95,18-58.11,5.05-5.99-5.46-10.06-12.2-13.12-19.62-1.73-4.19-3.36-8.42-5.03-12.64-.24.04-.47,0-.64.1-1.62.85-3.68,2.34-4.96.67-.8-1.06-.31-3.61.36-5.17,2.4-5.64,6.8-9.22,12.71-10.76,1.2-.31,2.93-.12,3.85.59.58.43.11,2.26.11,4.2,5.75,1.28,11.9,2.99,18.18,4,18.97,3.07,37.44,1.03,55.32-6.12.79-.32,1.64-.6,2.5-.68,2.93-.29,4.8,1.42,4.81,4.34Z" />
        <path class="cls-1" d="m192.35,161.42c.06-8.54-1.44-13.37-5.64-18.86-7.19-9.41-19.85-9.4-27,.02-6.96,9.14-7.02,24.95-.13,34.67,7.56,10.68,21.78,10.37,28.86-.62,3.11-4.84,4.22-10.15,3.91-15.2Zm-14.17-7.32c-2.51.13-4.73-2.21-4.79-5.08-.06-2.86,2.02-5.3,4.54-5.34,2.56-.05,4.61,2.29,4.58,5.23-.02,2.76-1.93,5.05-4.33,5.18Z" />
        <path class="cls-1" d="m290.01,143.55c-6.04-8.98-18.32-10.91-25.92-2.15-3.79,4.38-5.48,9.58-6.17,15.14-.83,6.85.01,13.51,3.71,19.48,6.95,11.24,20.76,11.51,28.29.66,3.42-4.94,4.6-10.48,4.42-16.56.19-5.82-.91-11.51-4.32-16.57Zm-12.37,10.79c-2.56-.01-4.31-2.02-4.36-5-.06-3.16,1.69-5.22,4.44-5.21,2.51.01,4.43,2.15,4.46,4.97.04,2.95-1.96,5.24-4.55,5.24Z" />
        <path class="cls-1" d="m185.77,106.93c-1.27,1.49-2.68.74-4.18.3-4.03-1.19-8.06-2.77-12.2-3.24-9.68-1.09-18.16,2.24-25.6,8.36-.25.22-.47.46-.73.65-1.33,1.03-2.56,2.94-4.45,1.82-2.08-1.24-1.04-3.4-.53-5.05,1.49-4.79,4.91-8.18,8.78-11.04,5.58-4.1,11.98-6,18.85-6.17,4.99.18,9.72,1.24,14.15,3.48,2.68,1.36,4.85,3.28,6.2,6.02.83,1.69,1.01,3.34-.3,4.86Z" />
        <path class="cls-1" d="m305.7,114.19c-1.15-.35-2.58-.37-3.42-1.08-4.9-4.1-10.16-7.36-16.54-8.65-6.16-1.26-12.08-.49-17.94,1.54-1.32.46-2.65,1.02-4.03,1.18-2.7.31-4.32-1.42-3.4-3.96.66-1.85,1.87-3.77,3.38-4.98,4.8-3.88,10.46-5.58,17.53-5.62,7.69.42,15.34,3.18,21.02,9.84,1.91,2.23,3.16,5.15,4.26,7.93.4,1-.55,2.52-.88,3.8Z" />
        <path class="cls-1" d="m193.17,296.63c-.24,1.4-.35,2.84-.76,4.2-2.12,7.2-6.79,12.26-13.48,15.47-2.81,1.36-3.46,1.09-4.9-1.62-3-5.64-4.94-11.58-4.67-18.07.06-1.38.37-2.75.56-4.13.2-.01.41-.04.61-.05,2.88,4.82,5.77,9.64,8.75,14.62,5.44-2.65,8.94-7.2,13.87-10.42Z" />
        <path class="cls-1" d="m259.1,314.96c-.84,4.16-2.17,4.92-6.19,3.54-6.13-2.1-11.4-5.33-13.94-11.74-.1-.25-.06-.58-.13-1.3,4.75,2.93,9.46,5.16,15.17,5.87.66-7.28.29-14.46-.02-21.72.38.22.79.3.9.54,3.88,7.85,6.01,16.02,4.22,24.81Z" />
        <path class="cls-1" d="m100.14,219.14c-.66.62-1.09,1.25-1.68,1.56-5.65,3.06-11.7,4.48-18.12,4.12-2.4-.14-3.04-1-2.21-3.11,2.45-6.19,6.61-11.02,11.87-14.93.29.11.56.22.85.32-.9,3.23-1.81,6.44-2.92,10.4,4.06.54,7.97,1.06,12.2,1.63Z" />
        <path class="cls-1" d="m93.24,149.79c-4.91,5.04-12.85,4.2-16.06-1.85,4.62-4.07,10.09-3.38,16.06,1.85Z" />
        <path class="cls-1" d="m369.44,267.6v-28.33c5.85,0,11.61-.32,17.32.08,6.42.45,10.38,4.69,11.08,11.59.28,2.74.02,5.7-.74,8.35-1.61,5.67-6.12,7.98-11.62,8.26-5.19.26-10.41.06-16.05.06Z" />
        <path class="cls-2" d="m69.38,324.09c-3.56,6.98-8.22,13.09-14.88,17.41-1.64,1.07-3.5,1.91-5.36,2.47-5.47,1.66-9.89-.18-12.67-5.18-3.44-6.23-3.52-13-2.93-19.82.28-3.19.7-6.37,1.02-9.55.77-7.61-1.4-14.29-6.1-20.3-2.77-3.56-5.56-7.18-7.72-11.11-3.42-6.24-4.3-13.02-2.38-19.99,1.85-6.74,5.16-8.94,12.07-8.03,10.26,1.33,18.53,6.7,25.92,13.45,3.95,3.61,7.34,7.82,10.87,11.87.58.66.54,1.85.46,2.95-11.45-5.23-22.75-9.82-35.32-10.81,1.64.89,3.29,1.76,4.92,2.66,7.98,4.44,15.97,8.87,23.94,13.34,1.5.85,3.22,1.51,2.69,4-.55,2.58-2.46,1.9-3.98,2.05-5.44.53-10.88.94-16.33,1.42-1.1.11-2.2.36-4.06.67,6.54,3.35,12.79,4.2,19.07,4.8,2.4.23,2.88,1.02,3.14,3.4.48,4.38-1.18,7.3-4.15,10.32-4.34,4.4-8.12,9.36-12.14,14.09.22.3.43.59.66.88,5.8-3.41,11.58-6.83,17.29-10.2,1.98,2.36,4.06,4.75,6,7.25.32.42.24,1.44-.04,1.98Z" />
        <path class="cls-3" d="m241.12,237.82c-10.26,9.67-30.82,7.72-38.53-6.8,11.3-6.24,29.99-4.1,38.53,6.8Z" />
      </g>
    </g>
  </g>
</svg>