<svg xmlns="http://www.w3.org/2000/svg" width="1300" height="287" viewBox="0 0 1300 287"><path fill="#348ec3" d="M432.77 135.41c-3.14 5.81-8.06 10.49-14.75 14.04-6.7 3.56-15.14 5.33-25.33 5.33h-20.8v47.64H347V78.35h45.69c9.6 0 17.78 1.66 24.53 4.98s11.82 7.88 15.2 13.69 5.07 12.39 5.07 19.73c0 6.64-1.57 12.86-4.71 18.67Zm-25.86-5.42c3.32-3.14 4.98-7.55 4.98-13.24 0-12.09-6.75-18.13-20.26-18.13H371.9v36.09h19.73c6.87 0 11.97-1.57 15.29-4.71ZM485.39 106.97c5.15-2.96 11.05-4.44 17.69-4.44v26.13h-6.58c-7.82 0-13.72 1.84-17.69 5.51s-5.96 10.07-5.96 19.2v49.06h-24.89v-98.48h24.89v15.29c3.2-5.21 7.38-9.3 12.53-12.27ZM514.36 88.04c-2.9-2.78-4.36-6.25-4.36-10.4s1.45-7.61 4.36-10.4c2.9-2.78 6.55-4.18 10.93-4.18s8.03 1.39 10.93 4.18 4.36 6.25 4.36 10.4-1.45 7.62-4.36 10.4c-2.9 2.79-6.55 4.18-10.93 4.18s-8.03-1.39-10.93-4.18m23.2 15.91v98.48h-24.89v-98.48zM596.05 179.5l24.89-75.55h26.49l-36.44 98.48h-30.22l-36.26-98.48h26.67l24.89 75.55ZM653.91 126.34c3.97-7.7 9.36-13.63 16.18-17.78 6.81-4.15 14.43-6.22 22.84-6.22q11.025 0 19.29 4.44c5.51 2.96 9.92 6.7 13.24 11.2v-14.04h25.06v98.48h-25.06v-14.4c-3.2 4.62-7.62 8.44-13.24 11.46q-8.445 4.53-19.47 4.53c-8.3 0-15.85-2.13-22.67-6.4s-12.21-10.28-16.18-18.04-5.95-16.68-5.95-26.75 1.98-18.78 5.95-26.49Zm68 11.29c-2.37-4.33-5.57-7.64-9.6-9.96-4.03-2.31-8.36-3.47-12.98-3.47s-8.89 1.13-12.8 3.38q-5.865 3.375-9.51 9.87c-2.43 4.33-3.64 9.45-3.64 15.38s1.21 11.11 3.64 15.55 5.63 7.85 9.6 10.22 8.21 3.55 12.71 3.55 8.95-1.15 12.98-3.47q6.045-3.465 9.6-9.96c2.37-4.32 3.56-9.51 3.56-15.55s-1.19-11.23-3.56-15.55ZM767.59 126.43c4.15-7.64 9.89-13.57 17.24-17.78s15.76-6.31 25.24-6.31c12.2 0 22.31 3.05 30.31 9.16 8 6.1 13.36 14.67 16.09 25.69h-26.84c-1.42-4.27-3.82-7.61-7.2-10.04s-7.55-3.64-12.53-3.64c-7.11 0-12.74 2.58-16.89 7.73s-6.22 12.47-6.22 21.95 2.07 16.62 6.22 21.78c4.15 5.15 9.78 7.73 16.89 7.73 10.07 0 16.65-4.5 19.73-13.51h26.84c-2.73 10.67-8.12 19.14-16.18 25.42s-18.13 9.42-30.22 9.42c-9.48 0-17.9-2.1-25.24-6.31-7.35-4.21-13.1-10.13-17.24-17.78-4.15-7.64-6.22-16.56-6.22-26.75s2.07-19.11 6.22-26.75ZM961.88 103.95l-60.97 145.06h-26.49l21.33-49.06-39.46-95.99h27.91l25.42 68.8 25.78-68.8h26.49Z"/><path fill="#f4a70c" d="M1044.72 78.35v20.09h-51.73v31.82h39.64v19.73h-39.64v52.44H968.1V78.35zM1056.9 88.04c-2.91-2.78-4.36-6.25-4.36-10.4s1.45-7.61 4.36-10.4c2.9-2.78 6.55-4.18 10.93-4.18s8.03 1.39 10.93 4.18 4.36 6.25 4.36 10.4-1.45 7.62-4.36 10.4c-2.91 2.79-6.55 4.18-10.93 4.18s-8.03-1.39-10.93-4.18m23.2 15.91v98.48h-24.89v-98.48zM1113.52 199.67c-6.4-2.9-11.47-6.84-15.2-11.82s-5.78-10.49-6.13-16.53h25.06c.47 3.8 2.34 6.93 5.6 9.42s7.32 3.73 12.18 3.73 8.44-.95 11.11-2.84 4-4.33 4-7.29q0-4.8-4.89-7.2c-3.26-1.6-8.45-3.35-15.55-5.24-7.35-1.78-13.36-3.61-18.04-5.51-4.68-1.89-8.71-4.8-12.09-8.71s-5.07-9.18-5.07-15.82c0-5.45 1.57-10.43 4.71-14.93s7.64-8.06 13.51-10.67 12.77-3.91 20.71-3.91c11.73 0 21.09 2.93 28.09 8.8 6.99 5.87 10.84 13.78 11.56 23.73h-23.82q-.54-5.865-4.89-9.33c-2.91-2.31-6.78-3.47-11.64-3.47-4.51 0-7.97.83-10.4 2.49s-3.64 3.97-3.64 6.93q0 4.98 4.98 7.56c3.32 1.72 8.47 3.47 15.47 5.24 7.11 1.78 12.98 3.62 17.6 5.51 4.62 1.9 8.62 4.83 12 8.8s5.12 9.22 5.24 15.73c0 5.69-1.57 10.78-4.71 15.29s-7.64 8.03-13.51 10.58-12.71 3.82-20.53 3.82-15.29-1.45-21.69-4.36ZM1262.66 107.41c5.8 3.26 10.34 8.06 13.6 14.4s4.89 13.95 4.89 22.84v57.77h-24.89v-54.4c0-7.82-1.96-13.83-5.87-18.04s-9.24-6.31-16-6.31-12.3 2.11-16.27 6.31c-3.97 4.21-5.95 10.22-5.95 18.04v54.4h-24.89V70.88h24.89v45.33c3.2-4.27 7.47-7.61 12.8-10.04s11.26-3.64 17.78-3.64c7.47 0 14.1 1.63 19.91 4.89Z"/><path fill="#062f49" d="M309.579 184.634c-.318-.268-.327-1.06-.277-1.594.573-5.232 1.455-10.454 1.723-15.695.308-6.085.098-12.187.05-18.281-.04-4.737-2.309-7.481-6.955-8.64-3.786-.942-7.59-1.834-11.374-2.844-11.752-3.141-23.157-7.223-34.017-12.744-.614-.317-1.2-.714-1.883-1.118.853-.763 1.477-1.387 2.15-1.932 1.724-1.398 2.568-3.161 2.12-5.36-.434-2.25-2.179-3.103-4.15-3.647-2.467-.703-4.915-1.437-7.383-2.142-.822-.236-1.288-.624-1.537-1.584-.574-2.28-1.178-4.618-2.199-6.719-1.427-2.894-1.2-5.31.574-8.006 1.922-2.913 3.428-6.114 5.053-9.225 1.694-3.2.396-6.709-2.785-7.531-.841-.218-1.744-.189-2.616-.158-3.657.11-7.314.227-10.968.447-1.061.06-1.764-.287-2.448-1.04a218 218 0 0 0-5.697-6.064c-.574-.585-.842-1.1-.634-1.952.505-2.1.91-4.22 1.317-6.331.624-3.32 1.298-6.63 1.793-9.969.504-3.37-2.1-6.113-6.154-5.47-.853.138-1.675.545-2.457.922-4.073 1.962-8.145 3.924-12.168 5.965-.91.476-1.525.426-2.387-.088-2.536-1.537-5.113-3.021-7.758-4.37-1.04-.525-1.427-1.13-1.616-2.268a596 596 0 0 0-2.804-15.329c-.516-2.636-2.368-4.003-5.043-4.044-1.783-.028-3.042.873-4.23 2.042a3206 3206 0 0 1-12.029 11.722c-6.331-1.455-12.683-2.308-19.134-2.249-1.219.01-1.953-.356-2.636-1.377-2.476-3.706-5.053-7.351-7.6-11.008-.505-.724-1.03-1.446-1.664-2.041-3.231-3.062-7.6-2.18-9.452 1.912a73 73 0 0 0-1.595 3.944c-1.427 3.754-2.844 7.53-4.251 11.285-6.52 1.011-12.801 2.527-18.807 5.024-.91.387-1.487.17-2.21-.318-4.272-2.853-8.552-5.688-12.852-8.501-1.883-1.228-3.934-1.525-5.944-.426-2.022 1.12-2.804 2.964-2.696 5.282.218 4.737.308 9.472.526 14.2.05 1.01-.248 1.624-1.02 2.22-2.993 2.318-6.045 4.576-8.88 7.074-1.455 1.269-2.645 1.486-4.468.862-4.262-1.476-8.59-2.755-12.961-3.903-2.914-.772-5.806 1.298-5.995 4.161-.078 1.179.18 2.438.574 3.557a481 481 0 0 0 5.093 13.625c.387.992.357 1.754-.11 2.665-1.455 2.894-3.032 5.748-4.191 8.76-.724 1.911-1.932 2.476-3.717 2.664-3.625.378-7.253.773-10.86 1.308-1.159.167-2.428.564-3.348 1.248-2.438 1.783-2.498 5.26-.287 7.698 2.913 3.2 5.827 6.41 8.788 9.572.872.932 1.386 1.754 1.179 3.19-.457 3.34-.586 6.728-.971 10.086-.07.605-.614 1.308-1.14 1.685-3.062 2.22-6.173 4.37-9.273 6.54-1.903 1.316-2.814 3.14-2.457 5.41.337 2.141 1.833 3.38 3.864 3.994 2.388.712 4.747 1.565 7.175 2.1 2.349.517 3.477 1.487 3.805 4.162.793 6.57 2.765 12.882 5.172 19.192-.218-.158-.435-.318-.655-.466-5.678-4.023-11.742-7.094-18.757-8.095-7.244-1.02-12.743 1.883-15.289 8.74-3.288 8.878-1.823 17.27 3.349 25.059 1.348 2.012 2.983 3.833 4.488 5.747 2.328 2.952 3.27 6.243 2.835 10.038-.457 4.092-.882 8.215-.853 12.326.04 5.122 1.219 10.076 4.4 14.278 3.556 4.686 8.293 6.51 14.1 5.41 5.796-1.1 10.325-4.369 13.982-8.759 2.794-3.348 5.112-7.094 7.808-10.889.079-.01.208-.02.347 0 5.678.586 11.206.06 16.467-2.259.922-.406 1.348.11 1.922.596 4.765 4.022 9.789 7.679 15.317 10.582 1.408.744 2.082 1.724 2.378 3.2a496 496 0 0 0 2.419 11.485c.535 2.397 2.06 3.943 4.479 4.409 2.012.377 3.706-.416 5.212-1.704 3.38-2.913 6.768-5.817 10.246-8.798 9.175 2.586 18.637 3.24 28.21 2.873 1.149-.05 1.851.356 2.604 1.15 2.983 3.14 5.985 6.271 9.097 9.285 2.686 2.595 6.49 2.04 8.462-1.14.495-.803.823-1.705 1.179-2.577 1.21-2.932 2.397-5.865 3.578-8.798.346-.872.783-1.417 1.813-1.654 9.522-2.189 18.162-6.41 26.228-11.84.595-.396 1.19-.784 1.764-1.159 1.178 1.436 2.22 2.765 3.32 4.053 9.046 10.602 20.133 18.52 32.391 25.019 4.202 2.23 7.708 2.23 11.92.02 17.508-9.217 31.934-21.652 42.001-38.862.278-.466.772-1.02 1.26-1.119 4.132-.891 6.906-3.528 9.156-6.866 3.37-5.015 5.549-10.524 6.202-16.527.535-4.984.019-9.75-4.252-13.298Zm-130.465 53.13c-.784-1.477-1.566-2.964-2.35-4.448-.248 0-.475.02-.702.029-2.835 6.321-5.648 12.652-8.561 19.163-2.338-2.488-4.658-4.993-7.015-7.471-2.318-2.429-4.658-4.826-7.292-7.56-.356 1.606-.595 2.626-.892 3.993-2.497 0-5.073.24-7.6-.05-5.232-.585-10.423-1.467-15.635-2.189-1.179-.158-1.982-.574-2.21-1.873-.099-.555-.555-1.04-1.012-1.853-1.05.784-2 1.387-2.834 2.13-3.32 2.982-6.599 6.015-9.9 9.027-.494.446-1.01.862-1.675 1.446-1.386-7.362-3.32-14.319-7.064-21.075a465 465 0 0 1-2.22 3.556c-4.35-2.22-8.115-5.26-12.049-8.463 7.868-5.587 13.427-12.731 15.418-22.303.693-3.27.693-6.807-.12-8.917-.535.932-.94 1.644-1.366 2.349-2.894 4.727-5.43 9.71-8.77 14.089-4.607 6.044-10.522 10.702-17.864 13.198-3.567 1.209-7.244 1.328-10.82.891 2.457-5.122 4.866-10.126 7.273-15.14l-.586-.426c-1.912 1.912-3.755 3.903-5.767 5.717-2.04 1.843-4.24 3.518-6.589 5.45-1.367-3.45-1.417-6.619-1.06-9.84.771-7.244 4.191-13.358 8.471-19.015 2.161-2.854 4.628-5.48 6.927-8.234a9.2 9.2 0 0 0 1.446-2.328c-4.895.773-8.313 3.944-11.98 7.115-6.43-9.937-11.086-20.432-12.881-32.064.853-.703 1.594-1.269 2.29-1.893.633-.585 1.209-1.228 1.962-2-5.667-1.516-11.059-2.952-16.795-4.489.842-.633 1.427-1.118 2.05-1.556 2.42-1.723 4.836-3.477 7.314-5.112.951-.614 1.417-1.329 1.496-2.428.287-3.716.643-7.411.97-11.118q.21-2.319 2.577-2.983c.18-.06.327-.188.674-.366-4.39-4.598-8.71-9.134-13.207-13.852.783-.18 1.398-.377 2.021-.447 3.765-.435 7.522-.91 11.296-1.19 1.238-.098 1.773-.604 2.24-1.615 1.92-4.092 3.883-8.174 5.885-12.376 1.903.882 3.626 1.675 5.588 2.577-3.15-7.63-6.183-14.952-9.323-22.552 8.105 1.921 15.666 4.914 23.701 5.776a5 5 0 0 0 .278-.377c-1.188-1.487-2.388-2.992-3.676-4.598 2.576-2.07 5.153-4.133 7.827-6.272 1.506 1.675 2.785 3.518 5.153 4.37-.435-8.304-.863-16.42-1.317-25.04 7.074 4.825 13.683 9.344 20.332 13.89 1.644-2 .495-3.745.308-5.559 4.923-2.684 10.573-2.803 15.755-4.448.822 1.912 1.575 3.667 2.328 5.411.198-.02.387-.02.595-.04.346-.753.772-1.477 1.049-2.259 1.883-5.49 3.745-10.999 5.628-16.488.318-.942.684-1.862 1.16-3.122 5.202 7.5 10.166 14.785 16.032 21.522 1.773-2.318.862-4.885 1.357-7.55 2.605.248 5.242.308 7.789.793 3.231.615 6.431 1.487 9.582 2.448 1.14.337 1.625-.158 2.258-.784 3.726-3.736 7.462-7.471 11.197-11.207.466-.466.97-.91 1.695-1.606 1.398 7.937 2.755 15.607 4.16 23.661 1.34-1.467 2.458-2.674 3.786-4.122 2.3 1.417 4.807 2.567 6.788 4.31 2.755 2.437 5.112 2.497 8.205.573 3.477-2.16 7.313-3.735 11.316-5.736-.664 3.439-1.26 6.53-1.883 9.622-.447 2.18-.91 4.369-1.446 6.53-.248 1.01-.05 1.653.753 2.447 3.21 3.19 6.28 6.51 9.423 9.799-.702.624-1.228 1.09-2.11 1.862 5.956-.268 11.444-.516 17.29-.784-1.735 3.14-3.33 6.094-4.965 9.017-.862 1.525-2.418 2.973-2.536 4.539-.129 1.546 1.26 3.18 1.793 4.845 1.21 3.716 2.397 7.451 3.38 11.226.308 1.178.802 1.744 1.862 2.06 2.466.724 4.914 1.486 7.55 2.29-.416.356-.724.654-1.071.89-14.823 9.752-31.082 15.944-48.383 19.56-1.258.268-2.517.546-3.765.804-4.32.881-6.699 3.487-7.213 7.858-1.19 10.176-1.675 20.391-1.209 30.606.784 17.053 4.529 33.303 13.625 48.027-3.448 3.566-15.04 9.89-24.137 11.742Zm102.423-6.224c-8.67 10.237-19.44 17.687-31.33 23.662-.694.356-1.279.516-2.051.129-15.645-7.966-29.141-18.36-38.395-33.62-5.667-9.355-9.087-19.51-10.81-30.282a127.5 127.5 0 0 1-1.566-24.87c.208-5.54.763-11.058 1.238-16.577.208-2.388.378-2.467 2.964-3.012 9.572-2.05 18.995-4.577 28.13-8.145 6.936-2.695 13.575-5.965 20.045-9.7 7.48 4.1 15.239 7.54 23.216 10.482 9.066 3.34 18.36 5.846 27.734 8.136.525.129 1.04.287 1.565.406.763.17 1.08.574 1.14 1.398.466 7.036.397 14.07-.327 21.085-.366 3.546-.872 7.084-1.329 10.7h-8.104c1.792-8.779 2.18-17.627 1.823-26.605-3.171-.803-6.312-1.566-9.424-2.419a194.5 194.5 0 0 1-34.977-13.198c-.863-.416-1.566-.783-2.596-.208-12.454 7.015-25.88 11.475-39.664 14.952-.712.18-1.427.387-2.309.634-.267 3.497-.614 6.986-.783 10.492-.703 14.725.614 29.17 6.223 42.984 5.519 13.566 14.605 24.227 26.713 32.351 2.904 1.962 6.004 3.657 8.977 5.519 1.119.703 2.012.585 3.162-.03 13.465-7.222 24.583-16.923 32.202-30.35.06-.11.18-.188.337-.365 1.05.822 2.06 1.694 3.15 2.466 1.04.743 2.151 1.377 3.359 2.14-2.369 4.24-5.182 8.145-8.313 11.84Zm-7.442-45.003c-1.565 7.451-6.193 12.079-13.565 13.604-3.597.733-7.362.702-11.069.932-1.873.11-3.754.019-5.776.019v20.193h-13.793v-61.284c.485-.05 1.011-.139 1.525-.139 7.233-.01 14.467-.079 21.71.04 2.489.05 5.005.357 7.422.892 7.223 1.615 12.416 7.323 13.635 14.665.604 3.707.693 7.411-.089 11.078m26.971 24.94c-2.1 2.743-3.676 3.161-6.876 1.734-4.082-1.823-7.462-4.438-8.71-9.008-.84-3.052.397-4.607 3.578-4.796 2.883-.17 5.758-.435 8.621-.655.01-.188.01-.377.01-.554-1.516-.703-3.052-1.377-4.568-2.12-.783-.378-1.575-.784-2.268-1.298-1.228-.91-1.487-2.22-1.178-3.638.308-1.376 1.367-1.99 2.626-2.22 3.427-.614 6.867-.545 10.246.308 3.15.794 4.46 2.457 4.35 5.698-.199 6.114-2.101 11.682-5.827 16.548Z"/><path fill="#ffc941" d="M306.895 194.93c-.199 6.114-2.101 11.682-5.827 16.548-2.1 2.744-3.676 3.162-6.876 1.735-4.082-1.823-7.462-4.438-8.71-9.008-.84-3.052.397-4.607 3.578-4.796 2.883-.17 5.758-.435 8.621-.655.01-.189.01-.377.01-.554-1.516-.703-3.052-1.377-4.568-2.12-.783-.378-1.575-.784-2.268-1.298-1.229-.911-1.487-2.22-1.178-3.638.308-1.376 1.367-1.99 2.626-2.22 3.427-.614 6.866-.545 10.246.308 3.15.794 4.46 2.457 4.35 5.698ZM274.1 186.539c-1.567 7.453-6.192 12.078-13.57 13.6-3.597.74-7.364.708-11.065.932-1.873.111-3.753.015-5.782.015v20.197h-13.787v-61.282c.485-.045 1.007-.143 1.521-.143 7.236-.008 14.475-.075 21.71.044 2.485.045 5.007.35 7.424.888 7.222 1.62 12.414 7.327 13.63 14.667.613 3.7.694 7.408-.082 11.08Z"/><path fill="#348ec3" d="M303.094 170.633c-.366 3.551-.88 7.08-1.337 10.707h-8.102c1.79-8.78 2.177-17.63 1.827-26.606-3.171-.805-6.312-1.567-9.424-2.416a194.8 194.8 0 0 1-34.983-13.198c-.859-.426-1.56-.791-2.596-.208-12.452 7.013-25.873 11.467-39.66 14.944-.716.187-1.425.395-2.305.634-.27 3.498-.62 6.99-.784 10.498-.7 14.72.613 29.172 6.222 42.98 5.52 13.571 14.601 24.233 26.71 32.357 2.909 1.954 6.005 3.649 8.982 5.513 1.11.7 2.006.589 3.156-.031 13.467-7.223 24.583-16.922 32.2-30.343.068-.112.18-.194.343-.374 1.044.82 2.059 1.695 3.149 2.47 1.038.738 2.149 1.38 3.358 2.14-2.365 4.238-5.186 8.147-8.31 11.84-8.67 10.237-19.443 17.69-31.335 23.665-.693.35-1.277.515-2.045.127-15.645-7.967-29.15-18.36-38.4-33.618-5.67-9.356-9.086-19.51-10.81-30.283-1.328-8.243-1.865-16.54-1.56-24.874.203-5.536.754-11.056 1.239-16.577.202-2.388.374-2.463 2.954-3.013 9.572-2.053 19.003-4.574 28.134-8.14 6.93-2.701 13.579-5.961 20.047-9.706 7.482 4.103 15.235 7.542 23.218 10.49 9.058 3.343 18.36 5.842 27.732 8.132.522.127 1.038.29 1.567.402.76.171 1.082.574 1.134 1.402.47 7.036.403 14.07-.321 21.085Z"/><path fill="#ffc941" d="M198.048 139.53c1.253-.254 2.507-.537 3.768-.799 17.3-3.618 33.558-9.81 48.383-19.562.35-.238.657-.537 1.074-.887-2.641-.805-5.087-1.575-7.55-2.297-1.066-.314-1.56-.88-1.866-2.053-.983-3.782-2.171-7.521-3.379-11.236-.537-1.656-1.918-3.29-1.79-4.842.119-1.568 1.67-3.006 2.528-4.537 1.64-2.925 3.238-5.87 4.968-9.013-5.843.261-11.34.506-17.286.776.872-.769 1.402-1.239 2.11-1.866-3.148-3.291-6.221-6.603-9.43-9.796-.798-.79-.998-1.432-.744-2.447.53-2.164.991-4.35 1.44-6.527.626-3.09 1.217-6.185 1.887-9.624-4.007 1.998-7.84 3.581-11.318 5.738-3.089 1.925-5.446 1.866-8.207-.574-1.977-1.747-4.492-2.886-6.79-4.313-1.328 1.448-2.44 2.655-3.781 4.126-1.41-8.058-2.761-15.728-4.155-23.665-.732.693-1.23 1.142-1.7 1.612-3.738 3.73-7.468 7.467-11.2 11.207-.626.62-1.118 1.118-2.253.783-3.156-.962-6.348-1.835-9.587-2.455-2.544-.485-5.178-.545-7.789-.791-.493 2.663.418 5.237-1.35 7.558C148.168 47.3 143.198 40.02 138 32.522c-.477 1.261-.843 2.178-1.163 3.12-1.879 5.49-3.737 10.996-5.624 16.488-.276.783-.701 1.507-1.052 2.26-.202.016-.394.023-.596.037-.746-1.747-1.5-3.499-2.328-5.409-5.178 1.648-10.826 1.76-15.75 4.446.187 1.814 1.337 3.558-.313 5.565-6.647-4.55-13.258-9.071-20.33-13.899.454 8.625.88 16.743 1.32 25.038-2.364-.85-3.648-2.694-5.154-4.365-2.67 2.133-5.245 4.2-7.825 6.268 1.29 1.611 2.484 3.111 3.677 4.604-.088.127-.179.254-.275.373-8.043-.864-15.6-3.849-23.703-5.775 3.14 7.595 6.169 14.921 9.317 22.554-1.954-.903-3.685-1.694-5.588-2.574-1.998 4.2-3.96 8.274-5.878 12.37-.47 1.007-1.007 1.52-2.246 1.611-3.768.283-7.527.76-11.287 1.194-.626.067-1.246.268-2.022.447 4.49 4.716 8.82 9.25 13.205 13.854-.342.18-.5.306-.68.358q-2.364.672-2.566 2.985c-.327 3.708-.685 7.407-.978 11.116-.083 1.103-.545 1.814-1.492 2.432-2.484 1.635-4.895 3.387-7.32 5.11-.62.434-1.209.919-2.052 1.56 5.744 1.529 11.131 2.97 16.802 4.485-.753.776-1.328 1.417-1.962 1.998-.693.626-1.44 1.194-2.291 1.895 1.798 11.638 6.454 22.129 12.878 32.066 3.67-3.171 7.088-6.34 11.982-7.117a9.3 9.3 0 0 1-1.448 2.336c-2.297 2.754-4.76 5.38-6.924 8.23-4.282 5.663-7.7 11.773-8.476 19.017-.35 3.215-.306 6.394 1.067 9.833 2.343-1.925 4.544-3.602 6.587-5.445 2.006-1.814 3.85-3.805 5.767-5.715l.581.425c-2.41 5.015-4.811 10.021-7.274 15.14 3.574.432 7.251.32 10.817-.889 7.348-2.499 13.258-7.155 17.87-13.197 3.342-4.379 5.878-9.37 8.767-14.093.425-.701.835-1.418 1.372-2.35.813 2.113.805 5.648.12 8.923-1.999 9.565-7.558 16.712-15.422 22.3 3.932 3.2 7.7 6.245 12.048 8.469.74-1.186 1.396-2.238 2.217-3.559 3.752 6.751 5.678 13.712 7.064 21.07.672-.582 1.187-1 1.68-1.44 3.298-3.014 6.579-6.043 9.9-9.035.829-.74 1.784-1.342 2.835-2.126.454.812.91 1.298 1.007 1.85.223 1.306 1.03 1.716 2.209 1.88 5.214.724 10.407 1.604 15.637 2.185 2.523.283 5.103.052 7.594.052l.896-3.991c2.634 2.73 4.975 5.125 7.288 7.557 2.357 2.477 4.685 4.984 7.02 7.468 2.91-6.515 5.73-12.84 8.558-19.167.23-.008.462-.023.7-.031q1.187 2.238 2.357 4.454c9.095-1.858 20.68-8.178 24.127-11.744-9.086-14.721-12.84-30.976-13.615-48.025-.47-10.221.015-20.434 1.21-30.605.513-4.379 2.886-6.976 7.207-7.864m-126.08-23.322c-3.051 3.133-7.99 2.611-9.981-1.15 2.872-2.528 6.275-2.104 9.982 1.15m3.245 44.085c-3.514 1.903-7.275 2.783-11.266 2.56-1.493-.09-1.887-.62-1.373-1.934 1.521-3.85 4.11-6.849 7.378-9.281.18.067.35.135.53.202-.56 2.007-1.126 4.007-1.814 6.468 2.523.335 4.955.657 7.587 1.015-.41.387-.68.776-1.044.97Zm100.66-73.047c.41-1.15 1.163-2.344 2.105-3.096 2.984-2.41 6.506-3.47 10.9-3.491 4.783.261 9.535 1.977 13.07 6.117 1.187 1.388 1.963 3.2 2.648 4.931.247.62-.342 1.568-.545 2.365-.716-.216-1.604-.231-2.125-.672-3.045-2.551-6.32-4.573-10.28-5.38-3.829-.784-7.514-.306-11.156.955-.82.283-1.648.633-2.507.732-1.679.194-2.686-.88-2.112-2.463Zm-72.481 5.684c-.156.135-.291.283-.455.402-.828.642-1.588 1.828-2.767 1.135-1.29-.769-.649-2.113-.327-3.14.924-2.978 3.052-5.088 5.46-6.866 3.47-2.55 7.447-3.73 11.721-3.835 3.104.111 6.043.768 8.796 2.164 1.664.843 3.014 2.037 3.857 3.745.514 1.052.626 2.074-.187 3.021-.791.925-1.663.463-2.595.187-2.507-.74-5.014-1.723-7.587-2.014-6.021-.68-11.287 1.396-15.913 5.201Zm9.818 40.348c-4.283-6.042-4.246-15.868.083-21.555 4.446-5.857 12.317-5.863 16.787-.015 2.61 3.418 3.543 6.416 3.506 11.728.194 3.141-.5 6.447-2.432 9.453-4.402 6.834-13.242 7.028-17.942.387Zm20.413 76.83c-1.321 4.476-4.223 7.624-8.378 9.615-1.747.844-2.15.68-3.045-1.007-1.866-3.506-3.073-7.2-2.902-11.235.037-.86.232-1.708.35-2.567.128-.008.255-.023.382-.029 1.79 3 3.59 5.99 5.44 9.087 3.38-1.649 5.559-4.477 8.624-6.476-.148.872-.215 1.768-.47 2.611Zm41.459 8.78c-.522 2.588-1.35 3.06-3.85 2.2-3.812-1.305-7.088-3.311-8.668-7.295-.06-.156-.037-.358-.083-.805 2.954 1.82 5.878 3.208 9.43 3.649.41-4.53.178-8.99-.016-13.504.238.135.493.187.56.335 2.409 4.88 3.738 9.96 2.627 15.422Zm7.2-68.324c-2.464 7.31-5.254 14.443-9.76 20.807-9.564 13.52-27.321 11.191-36.125 3.14-3.722-3.394-6.252-7.586-8.154-12.198-1.075-2.603-2.09-5.237-3.126-7.856-.148.023-.29 0-.394.06-1.007.53-2.292 1.455-3.081.418-.5-.657-.195-2.246.223-3.216 1.493-3.507 4.23-5.73 7.9-6.691.746-.195 1.82-.076 2.396.365.358.268.067 1.402.067 2.611 3.574.8 7.402 1.859 11.303 2.484 11.796 1.91 23.278.642 34.395-3.804.492-.203 1.022-.374 1.552-.426 1.82-.18 2.984.88 2.992 2.702 0 .537-.016 1.103-.187 1.604Zm-5.625-18.049c-2.298-3.708-2.821-7.848-2.305-12.107.425-3.463 1.477-6.694 3.835-9.416 4.724-5.446 12.362-4.246 16.115 1.336 2.118 3.148 2.806 6.685 2.686 10.304.112 3.781-.62 7.222-2.745 10.295-4.678 6.746-13.265 6.58-17.584-.41Z"/><path fill="#062f49" d="M182.47 148.96c0 .537-.016 1.103-.187 1.604-2.463 7.31-5.253 14.443-9.759 20.807-9.564 13.52-27.321 11.191-36.125 3.14-3.722-3.394-6.252-7.586-8.154-12.198-1.075-2.603-2.09-5.237-3.126-7.856-.148.023-.29 0-.394.06-1.007.53-2.292 1.455-3.081.418-.5-.657-.195-2.246.223-3.216 1.492-3.507 4.23-5.73 7.9-6.691.746-.195 1.82-.076 2.396.365.358.268.067 1.402.067 2.611 3.574.8 7.402 1.859 11.303 2.484 11.796 1.91 23.278.642 34.394-3.804.493-.203 1.023-.374 1.552-.426 1.82-.18 2.985.88 2.993 2.702ZM133.586 123.436c.037-5.312-.895-8.31-3.506-11.728-4.47-5.85-12.341-5.842-16.787.015-4.327 5.685-4.366 15.51-.083 21.555 4.7 6.64 13.54 6.447 17.942-.387 1.933-3.006 2.627-6.312 2.432-9.453Zm-8.811-4.552c-1.56.083-2.94-1.372-2.977-3.156-.037-1.775 1.253-3.298 2.82-3.32 1.59-.028 2.866 1.426 2.85 3.253-.015 1.716-1.201 3.14-2.693 3.223M194.302 112.328c-3.753-5.58-11.391-6.782-16.115-1.336-2.356 2.722-3.41 5.953-3.835 9.416-.514 4.259.007 8.4 2.305 12.107 4.319 6.99 12.907 7.156 17.584.41 2.126-3.073 2.857-6.514 2.746-10.295.119-3.618-.567-7.156-2.687-10.304Zm-7.692 6.707c-1.589-.008-2.679-1.254-2.708-3.112-.036-1.962 1.052-3.245 2.762-3.239 1.56.008 2.753 1.337 2.774 3.089.023 1.835-1.217 3.26-2.826 3.26ZM129.49 89.558c-.791.925-1.663.463-2.595.187-2.507-.74-5.014-1.723-7.587-2.014-6.021-.68-11.287 1.396-15.913 5.201-.156.135-.29.283-.454.402-.828.642-1.589 1.828-2.767 1.135-1.29-.769-.649-2.113-.327-3.141.924-2.977 3.052-5.087 5.46-6.865 3.47-2.55 7.447-3.73 11.721-3.835 3.104.111 6.043.768 8.796 2.164 1.664.843 3.014 2.037 3.857 3.745.514 1.052.626 2.074-.187 3.021ZM204.053 94.072c-.716-.216-1.604-.231-2.126-.672-3.044-2.551-6.32-4.573-10.28-5.38-3.828-.784-7.514-.306-11.155.955-.82.283-1.648.633-2.507.732-1.679.194-2.686-.88-2.112-2.463.41-1.15 1.163-2.343 2.105-3.096 2.984-2.41 6.506-3.47 10.9-3.491 4.783.261 9.535 1.977 13.07 6.117 1.187 1.388 1.963 3.2 2.648 4.931.247.62-.342 1.568-.545 2.365ZM134.094 207.496c-.148.872-.215 1.768-.47 2.611-1.32 4.477-4.222 7.625-8.378 9.616-1.746.844-2.148.68-3.044-1.007-1.866-3.506-3.073-7.2-2.902-11.235.037-.86.231-1.708.35-2.567.128-.008.255-.023.382-.029 1.79 3 3.59 5.99 5.44 9.087 3.38-1.649 5.559-4.477 8.624-6.476ZM175.083 218.89c-.521 2.588-1.35 3.06-3.849 2.2-3.812-1.305-7.088-3.311-8.669-7.295-.06-.156-.036-.359-.082-.805 2.953 1.82 5.878 3.208 9.43 3.649.41-4.53.178-8.99-.016-13.504.238.135.493.187.56.335 2.409 4.88 3.737 9.96 2.626 15.422ZM76.259 159.323c-.41.387-.68.776-1.044.97-3.514 1.903-7.275 2.783-11.266 2.56-1.493-.09-1.887-.62-1.373-1.934 1.52-3.85 4.11-6.849 7.378-9.281.18.067.35.135.53.202-.56 2.007-1.126 4.007-1.814 6.468 2.523.335 4.955.657 7.587 1.015ZM71.969 116.208c-3.052 3.133-7.991 2.611-9.982-1.15 2.872-2.528 6.275-2.104 9.982 1.15M243.683 189.45v-17.613c3.64 0 7.219-.196 10.768.052 3.99.28 6.452 2.913 6.89 7.202.172 1.704.009 3.54-.46 5.189-1 3.527-3.804 4.962-7.222 5.135-3.227.164-6.47.035-9.976.035"/><path fill="#348ec3" d="M57.13 224.564c-2.216 4.342-5.11 8.14-9.25 10.826a13.2 13.2 0 0 1-3.335 1.536c-3.403 1.03-6.148-.112-7.88-3.223-2.14-3.872-2.185-8.08-1.819-12.326.171-1.985.433-3.96.633-5.938.478-4.73-.872-8.886-3.789-12.624-1.723-2.216-3.454-4.461-4.797-6.909-2.125-3.88-2.67-8.095-1.476-12.43 1.15-4.193 3.208-5.558 7.505-4.99 6.38.828 11.519 4.163 16.115 8.363 2.455 2.245 4.566 4.863 6.759 7.378.358.41.335 1.15.283 1.835-7.117-3.252-14.145-6.102-21.957-6.722 1.022.553 2.045 1.098 3.06 1.656 4.962 2.761 9.93 5.513 14.884 8.297.932.53 1.999.94 1.671 2.484-.342 1.604-1.528 1.179-2.476 1.277-3.38.327-6.766.581-10.153.88-.686.067-1.365.223-2.523.418 4.067 2.081 7.953 2.61 11.856 2.984 1.492.143 1.79.634 1.954 2.11.299 2.723-.731 4.537-2.582 6.417-2.701 2.738-5.05 5.819-7.55 8.759q.201.279.41.545c3.603-2.118 7.2-4.246 10.75-6.34 1.231 1.468 2.523 2.953 3.73 4.505.203.262.149.895-.023 1.23Z"/><path fill="#ffc941" d="M163.904 170.93c-6.38 6.014-19.16 4.797-23.956-4.23 7.028-3.88 18.645-2.552 23.956 4.23"/></svg>