<?xml version="1.0" encoding="UTF-8"?>
<!-- Generated by Pixelmator Pro 3.7.1 -->
<svg width="1618" height="312" viewBox="0 0 1618 312" xmlns="http://www.w3.org/2000/svg">
    <g id="Layer1-2">
        <g id="Group">
            <g id="g1">
                <path id="Path" fill="#348ec3" stroke="none" d="M 542.820007 129.830002 C 538.869995 137.12999 532.690002 143.009995 524.27002 147.479996 C 515.849976 151.949997 505.23999 154.179993 492.429993 154.179993 L 466.290009 154.179993 L 466.290009 214.070007 L 435 214.070007 L 435 58.100006 L 492.429993 58.100006 C 504.5 58.100006 514.780029 60.190002 523.27002 64.360001 C 531.76001 68.529999 538.130005 74.270004 542.380005 81.569992 C 546.630005 88.869995 548.75 97.139999 548.75 106.369995 C 548.75 114.709991 546.77002 122.539993 542.830017 129.830002 Z M 510.309998 123.009995 C 514.47998 119.069992 516.570007 113.509995 516.570007 106.360001 C 516.570007 91.169998 508.080017 83.569992 491.100006 83.569992 L 466.299988 83.569992 L 466.299988 128.929993 L 491.100006 128.929993 C 499.73999 128.929993 506.149994 126.959991 510.320007 123.009995 Z"/>
                <path id="path1" fill="#348ec3" stroke="none" d="M 608.960022 94.080002 C 615.440002 90.360001 622.850037 88.490005 631.190002 88.490005 L 631.190002 121.339996 L 622.919983 121.339996 C 613.090027 121.339996 605.679993 123.649994 600.690002 128.269989 C 595.700012 132.889999 593.200012 140.929993 593.200012 152.399994 L 593.200012 214.080017 L 561.919983 214.080017 L 561.919983 90.279999 L 593.200012 90.279999 L 593.200012 109.5 C 597.220032 102.949997 602.470032 97.809998 608.950012 94.080002 Z"/>
                <path id="path2" fill="#348ec3" stroke="none" d="M 645.380005 70.279999 C 641.72998 66.779999 639.909973 62.419998 639.909973 57.210007 C 639.909973 52 641.72998 47.640015 645.380005 44.140015 C 649.029968 40.640015 653.609985 38.890015 659.119995 38.890015 C 664.630005 38.890015 669.210022 40.640015 672.859985 44.140015 C 676.51001 47.640015 678.330017 52 678.330017 57.210007 C 678.330017 62.419998 676.5 66.779999 672.859985 70.279999 C 669.210022 73.779999 664.630005 75.529999 659.119995 75.529999 C 653.609985 75.529999 649.029968 73.779999 645.380005 70.279999 Z M 674.539978 90.279999 L 674.539978 214.080017 L 643.26001 214.080017 L 643.26001 90.279999 L 674.539978 90.279999 Z"/>
                <path id="path3" fill="#348ec3" stroke="none" d="M 748.059998 185.25 L 779.340027 90.279999 L 812.630005 90.279999 L 766.820007 214.080017 L 728.830017 214.080017 L 683.23999 90.279999 L 716.76001 90.279999 L 748.040039 185.25 Z"/>
                <path id="path4" fill="#348ec3" stroke="none" d="M 820.799988 118.440002 C 825.790039 108.759995 832.570007 101.309998 841.130005 96.089996 C 849.700012 90.880005 859.27002 88.270004 869.850037 88.270004 C 879.080017 88.270004 887.170044 90.130005 894.090027 93.860001 C 901.02002 97.589996 906.570007 102.279999 910.73999 107.940002 L 910.73999 90.289993 L 942.25 90.289993 L 942.25 214.089996 L 910.73999 214.089996 L 910.73999 195.98999 C 906.720032 201.799988 901.170044 206.600006 894.090027 210.399994 C 887.01001 214.200012 878.859985 216.100006 869.619995 216.100006 C 859.190002 216.100006 849.690002 213.420013 841.130005 208.059998 C 832.559998 202.700012 825.780029 195.140015 820.799988 185.380005 C 815.809998 175.62999 813.309998 164.409988 813.309998 151.75 C 813.309998 139.089996 815.799988 128.139999 820.799988 118.449997 Z M 906.27002 132.62999 C 903.290039 127.190002 899.27002 123.020004 894.200012 120.119995 C 889.130005 117.209991 883.700012 115.759995 877.890015 115.759995 C 872.080017 115.759995 866.720032 117.179993 861.799988 120 C 856.880005 122.830002 852.900024 126.970001 849.850037 132.399994 C 846.790039 137.839996 845.27002 144.279999 845.27002 151.729996 C 845.27002 159.179993 846.799988 165.699997 849.850037 171.279999 C 852.900024 176.869995 856.920044 181.149994 861.920044 184.130005 C 866.910034 187.110016 872.230042 188.600006 877.900024 188.600006 C 883.570007 188.600006 889.150024 187.149994 894.210022 184.23999 C 899.27002 181.330002 903.290039 177.169998 906.280029 171.729996 C 909.26001 166.289993 910.75 159.779999 910.75 152.179993 C 910.75 144.580002 909.26001 138.069992 906.280029 132.62999 Z"/>
                <path id="path5" fill="#348ec3" stroke="none" d="M 963.700012 118.550003 C 968.909973 108.940002 976.140015 101.490005 985.380005 96.199997 C 994.609985 90.910004 1005.190002 88.270004 1017.109985 88.270004 C 1032.450073 88.270004 1045.160034 92.110001 1055.210083 99.779999 C 1065.26001 107.449997 1072 118.209991 1075.430054 132.069992 L 1041.690063 132.069992 C 1039.910034 126.709991 1036.890015 122.5 1032.640015 119.440002 C 1028.400024 116.389999 1023.140015 114.860001 1016.890015 114.860001 C 1007.950012 114.860001 1000.869995 118.099991 995.659973 124.580002 C 990.440002 131.059998 987.840027 140.259995 987.840027 152.179993 C 987.840027 164.099991 990.440002 173.069992 995.659973 179.549988 C 1000.869995 186.029999 1007.950012 189.269989 1016.890015 189.269989 C 1029.550049 189.269989 1037.820068 183.610001 1041.690063 172.289993 L 1075.430054 172.289993 C 1072 185.700012 1065.22998 196.350006 1055.099976 204.25 C 1044.969971 212.149994 1032.310059 216.089996 1017.109985 216.089996 C 1005.190002 216.089996 994.609985 213.450012 985.380005 208.160004 C 976.140015 202.869995 968.919983 195.420013 963.700012 185.809998 C 958.47998 176.199997 955.880005 164.98999 955.880005 152.179993 C 955.880005 139.369995 958.47998 128.159988 963.700012 118.550003 Z"/>
                <path id="path6" fill="#348ec3" stroke="none" d="M 1207.929932 90.279999 L 1131.280029 272.619995 L 1097.97998 272.619995 L 1124.799927 210.940002 L 1075.189941 90.270004 L 1110.27002 90.270004 L 1142.219971 176.75 L 1174.619995 90.270004 L 1207.919922 90.270004 Z"/>
                <path id="path7" fill="#f4a70c" stroke="none" d="M 1312.060059 58.100006 L 1312.060059 83.349991 L 1247.030029 83.349991 L 1247.030029 123.349991 L 1296.859985 123.349991 L 1296.859985 148.149994 L 1247.030029 148.149994 L 1247.030029 214.070007 L 1215.75 214.070007 L 1215.75 58.100006 L 1312.060059 58.100006 Z"/>
                <path id="path8" fill="#f4a70c" stroke="none" d="M 1327.369995 70.279999 C 1323.719971 66.779999 1321.900024 62.419998 1321.900024 57.210007 C 1321.900024 52 1323.719971 47.640015 1327.369995 44.140015 C 1331.02002 40.640015 1335.599976 38.890015 1341.109985 38.890015 C 1346.619995 38.890015 1351.199951 40.640015 1354.849976 44.140015 C 1358.5 47.640015 1360.319946 52 1360.319946 57.210007 C 1360.319946 62.419998 1358.48999 66.779999 1354.849976 70.279999 C 1351.199951 73.779999 1346.619995 75.529999 1341.109985 75.529999 C 1335.599976 75.529999 1331.02002 73.779999 1327.369995 70.279999 Z M 1356.530029 90.279999 L 1356.530029 214.080017 L 1325.25 214.080017 L 1325.25 90.279999 L 1356.530029 90.279999 Z"/>
                <path id="path9" fill="#f4a70c" stroke="none" d="M 1398.540039 210.610016 C 1390.5 206.959991 1384.130005 202.01001 1379.429932 195.75 C 1374.73999 189.48999 1372.169922 182.559998 1371.719971 174.970001 L 1403.22998 174.970001 C 1403.820068 179.73999 1406.169922 183.689987 1410.27002 186.809998 C 1414.369995 189.940002 1419.469971 191.5 1425.580078 191.5 C 1431.689941 191.5 1436.189941 190.309998 1439.550049 187.929993 C 1442.900024 185.549988 1444.580078 182.48999 1444.580078 178.769989 C 1444.580078 174.75 1442.530029 171.729996 1438.439941 169.720001 C 1434.340088 167.709991 1427.820068 165.509995 1418.890015 163.12999 C 1409.650024 160.889999 1402.090088 158.589996 1396.209961 156.199997 C 1390.320068 153.819992 1385.26001 150.169998 1381.01001 145.25 C 1376.77002 140.330002 1374.640015 133.709991 1374.640015 125.360001 C 1374.640015 118.509995 1376.609985 112.25 1380.560059 106.589996 C 1384.5 100.929993 1390.169922 96.459991 1397.540039 93.179993 C 1404.919922 89.899994 1413.590088 88.259995 1423.570068 88.259995 C 1438.320068 88.259995 1450.080078 91.949997 1458.880005 99.319992 C 1467.670044 106.690002 1472.51001 116.639999 1473.410034 129.149994 L 1443.469971 129.149994 C 1443.02002 124.229996 1440.969971 120.319992 1437.320068 117.419998 C 1433.669922 114.509995 1428.790039 113.059998 1422.679932 113.059998 C 1417.02002 113.059998 1412.659912 114.099991 1409.609985 116.190002 C 1406.560059 118.279999 1405.030029 121.179993 1405.030029 124.899994 C 1405.030029 129.069992 1407.109985 132.23999 1411.290039 134.399994 C 1415.459961 136.559998 1421.939941 138.759995 1430.72998 140.98999 C 1439.669922 143.220001 1447.040039 145.539993 1452.849976 147.919998 C 1458.659912 150.309998 1463.689941 153.98999 1467.930054 158.979996 C 1472.170044 163.970001 1474.369995 170.569992 1474.52002 178.759995 C 1474.52002 185.910004 1472.540039 192.320007 1468.599976 197.980011 C 1464.650024 203.640015 1458.98999 208.070007 1451.619995 211.279999 C 1444.23999 214.480011 1435.640015 216.080017 1425.810059 216.080017 C 1415.97998 216.080017 1406.590088 214.25 1398.550049 210.610016 Z"/>
                <path id="path10" fill="#f4a70c" stroke="none" d="M 1586.02002 94.639999 C 1593.319946 98.740005 1599.02002 104.770004 1603.119995 112.740005 C 1607.219971 120.709991 1609.27002 130.279999 1609.27002 141.449997 L 1609.27002 214.070007 L 1577.98999 214.070007 L 1577.98999 145.689987 C 1577.98999 135.860001 1575.530029 128.299988 1570.619995 123.009995 C 1565.699951 117.720001 1559 115.080002 1550.51001 115.080002 C 1542.02002 115.080002 1535.050049 117.729996 1530.060059 123.009995 C 1525.069946 128.299988 1522.569946 135.860001 1522.569946 145.689987 L 1522.569946 214.070007 L 1491.290039 214.070007 L 1491.290039 48.720001 L 1522.569946 48.720001 L 1522.569946 105.699997 C 1526.589966 100.339996 1531.959961 96.130005 1538.660034 93.080002 C 1545.359985 90.029999 1552.810059 88.5 1561.01001 88.5 C 1570.400024 88.5 1578.73999 90.550003 1586.040039 94.639999 Z"/>
            </g>
            <g id="g2">
                <path id="path11" fill="#062f49" stroke="none" d="M 395.219971 210.959991 C 394.810059 210.610016 394.790039 209.580017 394.859985 208.880005 C 395.609985 202.059998 396.76001 195.26001 397.109985 188.429993 C 397.51001 180.5 397.23999 172.549988 397.170044 164.619995 C 397.119995 158.449997 394.160034 154.869995 388.109985 153.360001 C 383.180054 152.12999 378.219971 150.970001 373.290039 149.659988 C 357.97998 145.569992 343.119995 140.25 328.97998 133.059998 C 328.180054 132.649994 327.420044 132.12999 326.530029 131.599991 C 327.640015 130.610001 328.449951 129.789993 329.329956 129.080002 C 331.579956 127.259995 332.670044 124.959991 332.089966 122.099991 C 331.52002 119.169998 329.25 118.059998 326.680054 117.349991 C 323.469971 116.429993 320.280029 115.479996 317.060059 114.559998 C 315.98999 114.25 315.380005 113.75 315.060059 112.490005 C 314.310059 109.520004 313.52002 106.470001 312.189941 103.740005 C 310.329956 99.970001 310.630005 96.819992 312.939941 93.309998 C 315.439941 89.520004 317.410034 85.349991 319.52002 81.289993 C 321.72998 77.119995 320.040039 72.550003 315.890015 71.479996 C 314.790039 71.199997 313.619995 71.229996 312.47998 71.270004 C 307.719971 71.410004 302.949951 71.569992 298.189941 71.849991 C 296.810059 71.929993 295.890015 71.479996 295 70.490005 C 292.569946 67.809998 290.099976 65.169998 287.579956 62.589996 C 286.829956 61.830002 286.47998 61.160004 286.75 60.050003 C 287.410034 57.309998 287.939941 54.549988 288.469971 51.799988 C 289.280029 47.480011 290.160034 43.160004 290.810059 38.809998 C 291.469971 34.420013 288.069946 30.850006 282.790039 31.679993 C 281.680054 31.859985 280.609985 32.389984 279.589966 32.880005 C 274.280029 35.440002 268.97998 37.98999 263.73999 40.649994 C 262.550049 41.269989 261.75 41.209991 260.630005 40.529999 C 257.329956 38.529999 253.969971 36.589996 250.52002 34.839996 C 249.160034 34.160004 248.660034 33.369995 248.420044 31.880005 C 247.300049 25.220001 246.069946 18.559998 244.77002 11.910004 C 244.099976 8.480011 241.689941 6.700012 238.199951 6.640015 C 235.880005 6.600006 234.23999 7.779999 232.689941 9.299988 C 227.459961 14.420013 222.219971 19.519989 217.02002 24.570007 C 208.77002 22.670013 200.5 21.559998 192.099976 21.639984 C 190.51001 21.649994 189.560059 21.179993 188.670044 19.850006 C 185.439941 15.019989 182.089966 10.269989 178.77002 5.51001 C 178.109985 4.570007 177.430054 3.630005 176.599976 2.850006 C 172.390015 -1.140015 166.699951 0.01001 164.290039 5.339996 C 163.540039 7.019989 162.869995 8.730011 162.209961 10.480011 C 160.349976 15.369995 158.51001 20.290009 156.670044 25.179993 C 148.180054 26.5 139.98999 28.470001 132.170044 31.720001 C 130.97998 32.220001 130.22998 31.940002 129.290039 31.309998 C 123.72998 27.589996 118.150024 23.899994 112.550049 20.23999 C 110.099976 18.639984 107.430054 18.25 104.810059 19.679993 C 102.180054 21.139984 101.160034 23.540009 101.300049 26.559998 C 101.579956 32.730011 101.699951 38.899994 101.97998 45.059998 C 102.040039 46.380005 101.660034 47.179993 100.650024 47.950012 C 96.75 50.970001 92.780029 53.910004 89.079956 57.169998 C 87.180054 58.820007 85.630005 59.110001 83.26001 58.289993 C 77.709961 56.369995 72.069946 54.700012 66.380005 53.200012 C 62.589966 52.190002 58.819946 54.890015 58.569946 58.619995 C 58.469971 60.160004 58.800049 61.800003 59.319946 63.25 C 61.439941 69.199997 63.660034 75.110001 65.949951 81 C 66.449951 82.289993 66.410034 83.279999 65.810059 84.470001 C 63.910034 88.240005 61.859985 91.959991 60.349976 95.880005 C 59.410034 98.369995 57.829956 99.110001 55.51001 99.349991 C 50.790039 99.839996 46.060059 100.360001 41.359985 101.050003 C 39.849976 101.270004 38.199951 101.789993 37 102.679993 C 33.819946 105 33.75 109.529999 36.630005 112.709991 C 40.420044 116.880005 44.219971 121.059998 48.079956 125.179993 C 49.219971 126.389999 49.890015 127.459991 49.619995 129.339996 C 49.030029 133.689987 48.859985 138.099991 48.359985 142.479996 C 48.27002 143.269989 47.560059 144.179993 46.880005 144.669998 C 42.890015 147.559998 38.839966 150.360001 34.800049 153.189987 C 32.319946 154.909988 31.130005 157.279999 31.599976 160.23999 C 32.040039 163.029999 33.98999 164.639999 36.630005 165.439987 C 39.73999 166.369995 42.810059 167.479996 45.97998 168.179993 C 49.040039 168.849991 50.51001 170.119995 50.939941 173.599991 C 51.969971 182.159988 54.540039 190.380005 57.680054 198.600006 C 57.400024 198.390015 57.109985 198.190002 56.829956 197.98999 C 49.430054 192.75 41.530029 188.75 32.400024 187.440002 C 22.959961 186.110016 15.800049 189.890015 12.47998 198.820007 C 8.189941 210.390015 10.099976 221.320007 16.839966 231.459991 C 18.599976 234.080017 20.72998 236.459991 22.689941 238.950012 C 25.719971 242.799988 26.949951 247.080017 26.380005 252.029999 C 25.790039 257.360016 25.22998 262.730011 25.27002 268.089996 C 25.319946 274.76001 26.859985 281.220001 31 286.690002 C 35.630005 292.800018 41.800049 295.170013 49.369995 293.740021 C 56.920044 292.309998 62.819946 288.050018 67.579956 282.330017 C 71.219971 277.970001 74.23999 273.089996 77.75 268.140015 C 77.849976 268.130005 78.02002 268.110016 78.199951 268.140015 C 85.599976 268.900024 92.800049 268.220001 99.650024 265.200012 C 100.849976 264.670013 101.410034 265.339996 102.150024 265.970001 C 108.359985 271.210022 114.900024 275.970001 122.109985 279.76001 C 123.939941 280.730011 124.819946 282.01001 125.209961 283.930023 C 126.199951 288.930023 127.25 293.920013 128.359985 298.890015 C 129.060059 302.01001 131.040039 304.029999 134.189941 304.630005 C 136.810059 305.119995 139.02002 304.089996 140.97998 302.410004 C 145.380005 298.619995 149.800049 294.830017 154.329956 290.950012 C 166.280029 294.320007 178.609985 295.170013 191.079956 294.690002 C 192.579956 294.630005 193.48999 295.150024 194.469971 296.190002 C 198.359985 300.279999 202.27002 304.360016 206.319946 308.279999 C 209.819946 311.660004 214.77002 310.940002 217.339966 306.800018 C 217.98999 305.75 218.410034 304.580017 218.880005 303.440002 C 220.449951 299.619995 222 295.800018 223.540039 291.980011 C 223.98999 290.839996 224.560059 290.130005 225.900024 289.820007 C 238.300049 286.970001 249.560059 281.470001 260.069946 274.400024 C 260.839966 273.880005 261.619995 273.380005 262.369995 272.890015 C 263.910034 274.76001 265.26001 276.490021 266.689941 278.170013 C 278.469971 291.980011 292.920044 302.290009 308.890015 310.76001 C 314.359985 313.660004 318.930054 313.660004 324.420044 310.790009 C 347.22998 298.790009 366.02002 282.589996 379.140015 260.170013 C 379.5 259.559998 380.150024 258.839996 380.780029 258.710022 C 386.160034 257.550018 389.780029 254.110001 392.709961 249.759995 C 397.099976 243.230011 399.939941 236.049988 400.790039 228.230011 C 401.48999 221.73999 400.819946 215.529999 395.25 210.910004 Z M 225.26001 280.170013 C 224.23999 278.25 223.219971 276.309998 222.199951 274.369995 C 221.880005 274.369995 221.579956 274.400024 221.280029 274.410004 C 217.589966 282.650024 213.920044 290.890015 210.130005 299.369995 C 207.079956 296.130005 204.060059 292.860016 200.98999 289.640015 C 197.969971 286.480011 194.920044 283.350006 191.48999 279.790009 C 191.030029 281.880005 190.719971 283.210022 190.329956 284.990021 C 187.079956 284.990021 183.719971 285.300018 180.430054 284.930023 C 173.609985 284.170013 166.849976 283.02002 160.060059 282.080017 C 158.52002 281.869995 157.47998 281.330017 157.180054 279.640015 C 157.050049 278.920013 156.459961 278.279999 155.859985 277.230011 C 154.48999 278.25 153.25 279.040009 152.170044 280.01001 C 147.849976 283.900024 143.569946 287.839996 139.280029 291.77002 C 138.630005 292.350006 137.959961 292.890015 137.099976 293.650024 C 135.290039 284.059998 132.780029 275 127.900024 266.200012 C 126.829956 267.930023 125.97998 269.300018 125.01001 270.830017 C 119.339966 267.940002 114.439941 263.980011 109.310059 259.809998 C 119.560059 252.529999 126.800049 243.220001 129.390015 230.75 C 130.290039 226.48999 130.290039 221.880005 129.23999 219.130005 C 128.540039 220.339996 128.01001 221.269989 127.459961 222.190002 C 123.689941 228.350006 120.390015 234.839996 116.040039 240.540009 C 110.040039 248.410004 102.329956 254.479996 92.77002 257.730011 C 88.119995 259.300018 83.329956 259.460022 78.670044 258.890015 C 81.869995 252.220001 85.01001 245.700012 88.140015 239.170013 L 87.380005 238.610016 C 84.890015 241.100006 82.48999 243.700012 79.869995 246.059998 C 77.209961 248.459991 74.349976 250.639999 71.290039 253.159988 C 69.51001 248.670013 69.439941 244.540009 69.910034 240.339996 C 70.920044 230.899994 75.369995 222.940002 80.949951 215.570007 C 83.76001 211.850006 86.97998 208.429993 89.969971 204.839996 C 90.72998 203.950012 91.349976 202.959991 91.849976 201.809998 C 85.469971 202.820007 81.02002 206.950012 76.23999 211.080017 C 67.859985 198.130005 61.800049 184.459991 59.459961 169.309998 C 60.569946 168.389999 61.540039 167.659988 62.439941 166.839996 C 63.27002 166.080002 64.01001 165.23999 65 164.229996 C 57.619995 162.259995 50.589966 160.37999 43.119995 158.37999 C 44.219971 157.549988 44.97998 156.919998 45.790039 156.349991 C 48.939941 154.099991 52.089966 151.819992 55.319946 149.689987 C 56.560059 148.889999 57.170044 147.959991 57.27002 146.529999 C 57.640015 141.689987 58.109985 136.869995 58.540039 132.049988 C 58.720052 130.036662 59.840047 128.74 61.900024 128.160004 C 62.130005 128.080002 62.329956 127.910004 62.780029 127.679993 C 57.060059 121.690002 51.430054 115.779999 45.569946 109.639999 C 46.589966 109.410004 47.390015 109.149994 48.199951 109.059998 C 53.099976 108.490005 58 107.869995 62.910034 107.509995 C 64.52002 107.380005 65.219971 106.720001 65.829956 105.410004 C 68.329956 100.080002 70.890015 94.759995 73.5 89.289993 C 75.97998 90.440002 78.219971 91.470001 80.780029 92.649994 C 76.680054 82.709991 72.72998 73.169998 68.630005 63.270004 C 79.189941 65.770004 89.040039 69.669998 99.51001 70.800003 C 99.640015 70.649994 99.76001 70.479996 99.869995 70.309998 C 98.319946 68.369995 96.76001 66.410004 95.079956 64.320007 C 98.439941 61.619995 101.790039 58.940002 105.280029 56.149994 C 107.23999 58.330002 108.910034 60.729996 111.98999 61.839996 C 111.420044 51.019989 110.869995 40.450012 110.27002 29.220001 C 119.48999 35.51001 128.099976 41.390015 136.76001 47.320007 C 138.900024 44.709991 137.410034 42.440002 137.160034 40.079987 C 143.579956 36.579987 150.930054 36.429993 157.680054 34.279999 C 158.75 36.769989 159.72998 39.059998 160.709961 41.329987 C 160.969971 41.299988 161.209961 41.299988 161.47998 41.279999 C 161.930054 40.299988 162.48999 39.359985 162.849976 38.339996 C 165.300049 31.190002 167.72998 24.01001 170.180054 16.859985 C 170.589966 15.630005 171.069946 14.429993 171.689941 12.790009 C 178.469971 22.559998 184.930054 32.049988 192.569946 40.829987 C 194.880005 37.809998 193.689941 34.470001 194.339966 30.98999 C 197.72998 31.309998 201.170044 31.389984 204.48999 32.019989 C 208.699951 32.820007 212.869995 33.959991 216.969971 35.209991 C 218.449951 35.649994 219.089966 35 219.910034 34.190002 C 224.76001 29.320007 229.630005 24.459991 234.5 19.589996 C 235.109985 18.980011 235.77002 18.399994 236.709961 17.5 C 238.530029 27.839996 240.300049 37.829987 242.130005 48.320007 C 243.869995 46.410004 245.329956 44.829987 247.060059 42.950012 C 250.050049 44.799988 253.319946 46.290009 255.900024 48.559998 C 259.48999 51.73999 262.560059 51.809998 266.589966 49.309998 C 271.119995 46.5 276.119995 44.440002 281.329956 41.839996 C 280.469971 46.320007 279.689941 50.350006 278.880005 54.369995 C 278.300049 57.210007 277.689941 60.059998 277 62.880005 C 276.680054 64.199997 276.939941 65.039993 277.97998 66.069992 C 282.160034 70.229996 286.160034 74.550003 290.26001 78.839996 C 289.339966 79.649994 288.660034 80.259995 287.51001 81.270004 C 295.27002 80.919998 302.420044 80.599991 310.030029 80.25 C 307.77002 84.339996 305.689941 88.190002 303.560059 92 C 302.439941 93.990005 300.410034 95.869995 300.26001 97.910004 C 300.089966 99.919998 301.900024 102.050003 302.599976 104.220001 C 304.170044 109.059998 305.719971 113.929993 307 118.839996 C 307.400024 120.380005 308.050049 121.110001 309.430054 121.520004 C 312.640015 122.459991 315.829956 123.459991 319.27002 124.5 C 318.72998 124.959991 318.329956 125.349991 317.880005 125.660004 C 298.569946 138.360001 277.390015 146.429993 254.849976 151.139999 C 253.209961 151.48999 251.569946 151.849991 249.949951 152.189987 C 244.319946 153.339996 241.219971 156.729996 240.550049 162.429993 C 239 175.689987 238.369995 188.98999 238.97998 202.299988 C 240 224.51001 244.880005 245.679993 256.72998 264.860016 C 252.23999 269.51001 237.140015 277.740021 225.290039 280.160004 Z M 358.689941 272.059998 C 347.400024 285.390015 333.369995 295.100006 317.880005 302.880005 C 316.97998 303.339996 316.209961 303.550018 315.209961 303.050018 C 294.829956 292.670013 277.25 279.130005 265.189941 259.25 C 257.810059 247.070007 253.349976 233.830017 251.109985 219.799988 C 249.380005 209.059998 248.680054 198.26001 249.069946 187.399994 C 249.339966 180.179993 250.060059 173 250.680054 165.809998 C 250.949951 162.699997 251.170044 162.599991 254.540039 161.889999 C 267.01001 159.220001 279.280029 155.929993 291.180054 151.279999 C 300.219971 147.769989 308.859985 143.509995 317.290039 138.639999 C 327.040039 143.979996 337.140015 148.459991 347.530029 152.299988 C 359.339966 156.649994 371.449951 159.919998 383.660034 162.899994 C 384.339966 163.069992 385.02002 163.269989 385.699951 163.429993 C 386.689941 163.649994 387.109985 164.179993 387.180054 165.25 C 387.790039 174.409988 387.699951 183.580002 386.75 192.720001 C 386.27002 197.339996 385.609985 201.950012 385.02002 206.660004 L 374.459961 206.660004 C 376.800049 195.220001 377.300049 183.699997 376.839966 172 C 372.709961 170.949997 368.619995 169.959991 364.560059 168.849991 C 348.829956 164.580002 333.630005 158.860001 319 151.659988 C 317.880005 151.119995 316.959961 150.639999 315.619995 151.389999 C 299.400024 160.529999 281.910034 166.339996 263.949951 170.869995 C 263.02002 171.099991 262.089966 171.369995 260.939941 171.699997 C 260.589966 176.259995 260.140015 180.799988 259.920044 185.369995 C 259 204.549988 260.719971 223.369995 268.030029 241.360016 C 275.219971 259.029999 287.060059 272.920013 302.829956 283.5 C 306.609985 286.059998 310.650024 288.26001 314.52002 290.690002 C 315.97998 291.610016 317.140015 291.450012 318.640015 290.650024 C 336.180054 281.240021 350.660034 268.600006 360.589966 251.110001 C 360.670044 250.970001 360.819946 250.860001 361.030029 250.62999 C 362.400024 251.699997 363.709961 252.839996 365.130005 253.839996 C 366.48999 254.809998 367.930054 255.62999 369.51001 256.630005 C 366.430054 262.150024 362.76001 267.240021 358.680054 272.050018 Z M 349 213.429993 C 346.959961 223.140015 340.930054 229.160004 331.329956 231.149994 C 326.640015 232.110016 321.73999 232.070007 316.910034 232.360016 C 314.469971 232.5 312.02002 232.390015 309.380005 232.390015 L 309.380005 258.700012 L 291.410034 258.700012 L 291.410034 178.869995 C 292.040039 178.809998 292.72998 178.689987 293.400024 178.689987 C 302.819946 178.679993 312.25 178.589996 321.680054 178.73999 C 324.920044 178.799988 328.199951 179.199997 331.349976 179.899994 C 340.76001 182 347.52002 189.440002 349.109985 199 C 349.900024 203.830017 350.01001 208.660004 348.98999 213.429993 Z M 384.130005 245.920013 C 381.390015 249.5 379.339966 250.039993 375.170044 248.179993 C 369.849976 245.799988 365.449951 242.399994 363.819946 236.450012 C 362.719971 232.470001 364.339966 230.450012 368.47998 230.200012 C 372.23999 229.980011 375.97998 229.630005 379.709961 229.350006 C 379.719971 229.100006 379.719971 228.860016 379.719971 228.630005 C 377.75 227.709991 375.73999 226.839996 373.77002 225.869995 C 372.75 225.380005 371.719971 224.850006 370.810059 224.179993 C 369.209961 222.98999 368.869995 221.290009 369.27002 219.440002 C 369.670044 217.649994 371.050049 216.850006 372.689941 216.549988 C 377.160034 215.75 381.640015 215.839996 386.040039 216.950012 C 390.140015 217.980011 391.849976 220.149994 391.709961 224.369995 C 391.449951 232.330017 388.969971 239.589996 384.119995 245.929993 Z"/>
                <path id="path12" fill="#ffc941" stroke="none" d="M 391.719971 224.369995 C 391.459961 232.330017 388.97998 239.589996 384.130005 245.929993 C 381.390015 249.509995 379.339966 250.049988 375.170044 248.190002 C 369.849976 245.809998 365.449951 242.410004 363.819946 236.459991 C 362.719971 232.480011 364.339966 230.459991 368.47998 230.209991 C 372.23999 229.98999 375.97998 229.640015 379.709961 229.360016 C 379.719971 229.110016 379.719971 228.869995 379.719971 228.640015 C 377.75 227.720001 375.73999 226.850006 373.77002 225.880005 C 372.75 225.390015 371.719971 224.860016 370.810059 224.190002 C 369.209961 223 368.869995 221.299988 369.27002 219.450012 C 369.670044 217.660004 371.050049 216.860016 372.689941 216.559998 C 377.160034 215.76001 381.640015 215.850006 386.040039 216.959991 C 390.140015 217.98999 391.849976 220.160004 391.709961 224.380005 Z"/>
                <path id="path13" fill="#ffc941" stroke="none" d="M 349 213.450012 C 346.959961 223.160004 340.930054 229.179993 331.319946 231.170013 C 326.640015 232.130005 321.72998 232.089996 316.910034 232.380005 C 314.469971 232.529999 312.02002 232.399994 309.380005 232.399994 L 309.380005 258.710022 L 291.420044 258.710022 L 291.420044 178.87999 C 292.050049 178.819992 292.72998 178.699997 293.400024 178.699997 C 302.829956 178.699997 312.25 178.599991 321.680054 178.759995 C 324.920044 178.819992 328.199951 179.220001 331.349976 179.919998 C 340.76001 182.029999 347.52002 189.459991 349.109985 199.029999 C 349.910034 203.850006 350.01001 208.679993 349 213.459991 Z"/>
                <path id="path14" fill="#348ec3" stroke="none" d="M 386.77002 192.720001 C 386.290039 197.350006 385.619995 201.940002 385.030029 206.670013 L 374.47998 206.670013 C 376.810059 195.230011 377.319946 183.699997 376.859985 172.009995 C 372.72998 170.959991 368.640015 169.970001 364.579956 168.860001 C 348.849976 164.580002 333.640015 158.869995 319.01001 151.669998 C 317.890015 151.119995 316.97998 150.639999 315.630005 151.399994 C 299.410034 160.539993 281.920044 166.339996 263.959961 170.869995 C 263.030029 171.110001 262.099976 171.389999 260.959961 171.699997 C 260.609985 176.259995 260.150024 180.809998 259.939941 185.369995 C 259.030029 204.549988 260.73999 223.369995 268.050049 241.360016 C 275.23999 259.040009 287.069946 272.930023 302.839966 283.51001 C 306.630005 286.059998 310.660034 288.26001 314.540039 290.690002 C 315.98999 291.600006 317.150024 291.460022 318.650024 290.650024 C 336.189941 281.240021 350.670044 268.610016 360.599976 251.119995 C 360.689941 250.970001 360.829956 250.869995 361.050049 250.62999 C 362.410034 251.699997 363.72998 252.839996 365.150024 253.849991 C 366.5 254.809998 367.949951 255.649994 369.52002 256.640015 C 366.439941 262.160004 362.77002 267.25 358.689941 272.059998 C 347.400024 285.390015 333.359985 295.100006 317.869995 302.890015 C 316.969971 303.350006 316.209961 303.559998 315.209961 303.059998 C 294.829956 292.680023 277.23999 279.140015 265.189941 259.27002 C 257.800049 247.080017 253.349976 233.850006 251.109985 219.820007 C 249.380005 209.080017 248.680054 198.269989 249.079956 187.420013 C 249.339966 180.209991 250.060059 173.019989 250.689941 165.819992 C 250.949951 162.709991 251.180054 162.610001 254.540039 161.889999 C 267.01001 159.220001 279.290039 155.929993 291.189941 151.289993 C 300.219971 147.769989 308.880005 143.519989 317.300049 138.649994 C 327.050049 144 337.150024 148.479996 347.550049 152.309998 C 359.349976 156.659988 371.469971 159.919998 383.680054 162.899994 C 384.359985 163.069992 385.030029 163.279999 385.719971 163.419998 C 386.709961 163.639999 387.130005 164.169998 387.199951 165.25 C 387.810059 174.409988 387.719971 183.580002 386.780029 192.720001 Z"/>
                <path id="path15" fill="#ffc941" stroke="none" d="M 249.930054 152.209991 C 251.560059 151.87999 253.199951 151.509995 254.839966 151.169998 C 277.380005 146.459991 298.560059 138.389999 317.869995 125.690002 C 318.329956 125.380005 318.72998 124.990005 319.27002 124.529999 C 315.829956 123.479996 312.640015 122.479996 309.430054 121.539993 C 308.040039 121.130005 307.400024 120.389999 307 118.869995 C 305.719971 113.940002 304.170044 109.069992 302.599976 104.229996 C 301.900024 102.069992 300.099976 99.940002 300.27002 97.919998 C 300.430054 95.880005 302.449951 94 303.560059 92.009995 C 305.699951 88.199997 307.780029 84.360001 310.030029 80.270004 C 302.420044 80.610001 295.26001 80.929993 287.51001 81.279999 C 288.650024 80.279999 289.339966 79.669998 290.26001 78.849991 C 286.160034 74.559998 282.150024 70.25 277.97998 66.089996 C 276.939941 65.059998 276.680054 64.220001 277.01001 62.899994 C 277.699951 60.080002 278.300049 57.229996 278.890015 54.399994 C 279.709961 50.380005 280.469971 46.339996 281.349976 41.859985 C 276.130005 44.459991 271.140015 46.529999 266.609985 49.329987 C 262.589966 51.839996 259.52002 51.76001 255.920044 48.579987 C 253.339966 46.309998 250.069946 44.820007 247.079956 42.959991 C 245.349976 44.850006 243.900024 46.420013 242.150024 48.329987 C 240.310059 37.829987 238.550049 27.839996 236.73999 17.5 C 235.790039 18.399994 235.140015 18.98999 234.52002 19.600006 C 229.650024 24.459991 224.790039 29.329987 219.930054 34.200012 C 219.109985 35.01001 218.469971 35.660004 216.98999 35.220001 C 212.880005 33.970001 208.719971 32.829987 204.5 32.019989 C 201.189941 31.389984 197.76001 31.309998 194.349976 30.98999 C 193.709961 34.459991 194.890015 37.809998 192.589966 40.839996 C 184.949951 32.049988 178.47998 22.570007 171.699951 12.799988 C 171.079956 14.440002 170.599976 15.640015 170.180054 16.859985 C 167.72998 24.01001 165.310059 31.190002 162.849976 38.339996 C 162.48999 39.359985 161.939941 40.299988 161.47998 41.279999 C 161.219971 41.299988 160.959961 41.309998 160.699951 41.329987 C 159.72998 39.059998 158.75 36.769989 157.670044 34.279999 C 150.930054 36.429993 143.569946 36.570007 137.150024 40.070007 C 137.390015 42.429993 138.890015 44.709991 136.73999 47.320007 C 128.079956 41.390015 119.469971 35.5 110.26001 29.209991 C 110.849976 40.450012 111.410034 51.019989 111.97998 61.830002 C 108.900024 60.720001 107.22998 58.320007 105.26001 56.140015 C 101.780029 58.919998 98.430054 61.610001 95.060059 64.300003 C 96.73999 66.399994 98.300049 68.349991 99.849976 70.300003 C 99.72998 70.470001 99.619995 70.630005 99.48999 70.789993 C 89.01001 69.660004 79.170044 65.770004 68.609985 63.270004 C 72.699951 73.160004 76.650024 82.709991 80.75 92.649994 C 78.199951 91.470001 75.949951 90.440002 73.469971 89.300003 C 70.869995 94.770004 68.310059 100.080002 65.810059 105.410004 C 65.199951 106.720001 64.5 107.389999 62.880005 107.509995 C 57.969971 107.880005 53.069946 108.5 48.180054 109.069992 C 47.359985 109.160004 46.560059 109.419998 45.550049 109.649994 C 51.400024 115.789993 57.040039 121.699997 62.75 127.699997 C 62.300049 127.929993 62.099976 128.099991 61.869995 128.169998 C 59.816691 128.749995 58.703369 130.046661 58.530029 132.059998 C 58.099976 136.889999 57.640015 141.709991 57.26001 146.539993 C 57.150024 147.979996 56.550049 148.899994 55.319946 149.709991 C 52.079956 151.839996 48.939941 154.119995 45.790039 156.369995 C 44.97998 156.929993 44.219971 157.569992 43.119995 158.399994 C 50.599976 160.389999 57.619995 162.269989 65.01001 164.23999 C 64.030029 165.25 63.280029 166.089996 62.449951 166.839996 C 61.550049 167.659988 60.569946 168.399994 59.469971 169.309998 C 61.810059 184.470001 67.880005 198.140015 76.23999 211.080017 C 81.02002 206.950012 85.469971 202.820007 91.849976 201.809998 C 91.349976 202.959991 90.719971 203.959991 89.959961 204.850006 C 86.969971 208.440002 83.76001 211.860016 80.939941 215.570007 C 75.359985 222.950012 70.910034 230.910004 69.900024 240.339996 C 69.439941 244.529999 69.5 248.670013 71.290039 253.149994 C 74.339966 250.639999 77.209961 248.459991 79.869995 246.059998 C 82.47998 243.700012 84.880005 241.100006 87.380005 238.619995 L 88.140015 239.170013 C 85 245.700012 81.869995 252.220001 78.660034 258.890015 C 83.319946 259.450012 88.109985 259.309998 92.75 257.730011 C 102.319946 254.470001 110.02002 248.410004 116.030029 240.540009 C 120.380005 234.830017 123.689941 228.330017 127.449951 222.179993 C 128 221.269989 128.540039 220.330017 129.23999 219.119995 C 130.300049 221.869995 130.290039 226.480011 129.400024 230.73999 C 126.800049 243.200012 119.550049 252.509995 109.310059 259.790009 C 114.430054 263.960022 119.339966 267.920013 125.01001 270.820007 C 125.969971 269.27002 126.829956 267.900024 127.900024 266.180023 C 132.790039 274.980011 135.300049 284.040009 137.099976 293.630005 C 137.969971 292.869995 138.650024 292.330017 139.290039 291.75 C 143.589966 287.820007 147.859985 283.880005 152.189941 279.980011 C 153.27002 279.02002 154.51001 278.230011 155.880005 277.210022 C 156.469971 278.27002 157.069946 278.900024 157.189941 279.619995 C 157.47998 281.320007 158.530029 281.860016 160.069946 282.070007 C 166.859985 283.01001 173.630005 284.160004 180.439941 284.920013 C 183.72998 285.290009 187.089966 284.990021 190.329956 284.990021 C 190.72998 283.210022 191.030029 281.869995 191.5 279.790009 C 194.930054 283.350006 197.97998 286.470001 201 289.640015 C 204.069946 292.869995 207.099976 296.130005 210.150024 299.369995 C 213.939941 290.890015 217.609985 282.640015 221.300049 274.400024 C 221.599976 274.400024 221.900024 274.369995 222.209961 274.360016 C 223.23999 276.300018 224.26001 278.240021 225.280029 280.160004 C 237.130005 277.740021 252.219971 269.51001 256.709961 264.860016 C 244.869995 245.679993 239.97998 224.51001 238.969971 202.299988 C 238.359985 188.98999 238.98999 175.679993 240.540039 162.429993 C 241.209961 156.720001 244.300049 153.339996 249.930054 152.189987 Z M 85.689941 121.830002 C 81.709961 125.910004 75.280029 125.229996 72.689941 120.330002 C 76.430054 117.039993 80.859985 117.589996 85.689941 121.830002 Z M 89.920044 179.259995 C 85.339966 181.73999 80.439941 182.889999 75.23999 182.589996 C 73.300049 182.470001 72.780029 181.779999 73.449951 180.069992 C 75.430054 175.049988 78.810059 171.149994 83.060059 167.979996 C 83.290039 168.069992 83.52002 168.149994 83.75 168.23999 C 83.02002 170.849991 82.280029 173.459991 81.390015 176.669998 C 84.680054 177.110001 87.839966 177.529999 91.27002 177.98999 C 90.73999 178.5 90.390015 179 89.910034 179.25 Z M 221.050049 84.099991 C 221.579956 82.599991 222.569946 81.050003 223.790039 80.069992 C 227.680054 76.929993 232.26001 75.550003 237.98999 75.520004 C 244.219971 75.860001 250.410034 78.099991 255.02002 83.490005 C 256.569946 85.300003 257.579956 87.660004 258.469971 89.910004 C 258.790039 90.720001 258.02002 91.949997 257.76001 92.990005 C 256.829956 92.709991 255.670044 92.690002 254.98999 92.119995 C 251.02002 88.800003 246.76001 86.160004 241.599976 85.110001 C 236.609985 84.089996 231.810059 84.709991 227.069946 86.349991 C 226 86.720001 224.920044 87.179993 223.800049 87.300003 C 221.609985 87.550003 220.300049 86.149994 221.050049 84.089996 Z M 126.630005 91.509995 C 126.430054 91.679993 126.25 91.880005 126.040039 92.029999 C 124.959961 92.869995 123.969971 94.410004 122.430054 93.509995 C 120.75 92.509995 121.579956 90.759995 122 89.419998 C 123.209961 85.539993 125.97998 82.789993 129.109985 80.479996 C 133.630005 77.160004 138.810059 75.619995 144.380005 75.479996 C 148.420044 75.630005 152.25 76.479996 155.839966 78.300003 C 158.01001 79.399994 159.77002 80.949997 160.859985 83.179993 C 161.530029 84.550003 161.680054 85.880005 160.619995 87.119995 C 159.589966 88.330002 158.449951 87.720001 157.23999 87.360001 C 153.969971 86.399994 150.709961 85.110001 147.359985 84.740005 C 139.52002 83.860001 132.660034 86.559998 126.630005 91.509995 Z M 139.420044 144.069992 C 133.839966 136.199997 133.890015 123.399994 139.530029 115.990005 C 145.319946 108.360001 155.579956 108.349991 161.400024 115.970001 C 164.800049 120.419998 166.02002 124.330002 165.969971 131.25 C 166.219971 135.339996 165.319946 139.649994 162.800049 143.559998 C 157.069946 152.459991 145.550049 152.720001 139.430054 144.069992 Z M 166.01001 244.160004 C 164.290039 249.98999 160.51001 254.089996 155.099976 256.690002 C 152.829956 257.790009 152.300049 257.570007 151.130005 255.37999 C 148.699951 250.809998 147.130005 246 147.349976 240.73999 C 147.400024 239.619995 147.650024 238.51001 147.810059 237.399994 C 147.97998 237.399994 148.140015 237.369995 148.310059 237.360016 C 150.640015 241.269989 152.97998 245.160004 155.400024 249.199997 C 159.800049 247.049988 162.640015 243.369995 166.640015 240.76001 C 166.449951 241.899994 166.359985 243.059998 166.030029 244.160004 Z M 220.02002 255.599991 C 219.339966 258.970001 218.26001 259.580017 215 258.470001 C 210.030029 256.77002 205.77002 254.149994 203.709961 248.959991 C 203.630005 248.76001 203.660034 248.48999 203.599976 247.910004 C 207.449951 250.279999 211.26001 252.089996 215.880005 252.659988 C 216.410034 246.76001 216.109985 240.950012 215.859985 235.070007 C 216.170044 235.23999 216.5 235.309998 216.589966 235.51001 C 219.72998 241.869995 221.459961 248.480011 220.01001 255.599991 Z M 229.400024 166.589996 C 226.189941 176.110001 222.560059 185.410004 216.689941 193.700012 C 204.22998 211.309998 181.099976 208.279999 169.630005 197.790009 C 164.780029 193.369995 161.48999 187.910004 159.01001 181.899994 C 157.609985 178.509995 156.290039 175.080002 154.939941 171.669998 C 154.75 171.699997 154.560059 171.669998 154.420044 171.75 C 153.109985 172.439987 151.439941 173.649994 150.410034 172.289993 C 149.76001 171.429993 150.160034 169.360001 150.699951 168.099991 C 152.640015 163.529999 156.209961 160.639999 160.98999 159.37999 C 161.959961 159.12999 163.359985 159.279999 164.109985 159.860001 C 164.579956 160.209991 164.199951 161.689987 164.199951 163.259995 C 168.859985 164.299988 173.839966 165.679993 178.920044 166.5 C 194.290039 168.98999 209.23999 167.339996 223.719971 161.539993 C 224.359985 161.279999 225.050049 161.049988 225.73999 160.98999 C 228.109985 160.759995 229.630005 162.139999 229.640015 164.509995 C 229.640015 165.209991 229.619995 165.949997 229.400024 166.599991 Z M 222.069946 143.080002 C 219.079956 138.25 218.400024 132.860001 219.069946 127.309998 C 219.619995 122.800003 220.98999 118.589996 224.069946 115.039993 C 230.219971 107.949997 240.170044 109.509995 245.060059 116.779999 C 247.819946 120.880005 248.709961 125.490005 248.560059 130.199997 C 248.709961 135.12999 247.75 139.610001 244.97998 143.610001 C 238.890015 152.399994 227.699951 152.179993 222.069946 143.080002 Z"/>
                <path id="path16" fill="#062f49" stroke="none" d="M 229.640015 164.48999 C 229.640015 165.189987 229.619995 165.929993 229.400024 166.580002 C 226.189941 176.099991 222.560059 185.399994 216.689941 193.690002 C 204.22998 211.299988 181.099976 208.269989 169.630005 197.779999 C 164.780029 193.360016 161.48999 187.899994 159.01001 181.889999 C 157.609985 178.5 156.290039 175.069992 154.939941 171.659988 C 154.75 171.689987 154.560059 171.659988 154.420044 171.73999 C 153.109985 172.429993 151.439941 173.639999 150.410034 172.279999 C 149.76001 171.419998 150.160034 169.349991 150.699951 168.089996 C 152.640015 163.519989 156.209961 160.62999 160.98999 159.369995 C 161.959961 159.119995 163.359985 159.269989 164.109985 159.849991 C 164.579956 160.199997 164.199951 161.679993 164.199951 163.25 C 168.859985 164.289993 173.839966 165.669998 178.920044 166.48999 C 194.290039 168.979996 209.23999 167.330002 223.719971 161.529999 C 224.359985 161.269989 225.050049 161.039993 225.73999 160.979996 C 228.109985 160.75 229.630005 162.12999 229.640015 164.5 Z"/>
                <path id="path17" fill="#062f49" stroke="none" d="M 165.959961 131.23999 C 166.01001 124.319992 164.790039 120.410004 161.390015 115.959991 C 155.569946 108.339996 145.310059 108.349991 139.52002 115.979996 C 133.880005 123.389999 133.829956 136.189987 139.410034 144.059998 C 145.530029 152.709991 157.050049 152.459991 162.780029 143.549988 C 165.300049 139.62999 166.199951 135.330002 165.949951 131.23999 Z M 154.47998 125.309998 C 152.449951 125.419998 150.650024 123.520004 150.599976 121.199997 C 150.550049 118.889999 152.22998 116.899994 154.27002 116.880005 C 156.339966 116.839996 158 118.740005 157.97998 121.119995 C 157.959961 123.360001 156.420044 125.209991 154.469971 125.319992 Z"/>
                <path id="path18" fill="#062f49" stroke="none" d="M 245.050049 116.770004 C 240.160034 109.5 230.209961 107.940002 224.060059 115.029999 C 220.98999 118.580002 219.619995 122.789993 219.060059 127.300003 C 218.390015 132.849991 219.060059 138.23999 222.060059 143.069992 C 227.689941 152.179993 238.869995 152.389999 244.969971 143.599991 C 247.73999 139.599991 248.689941 135.119995 248.550049 130.189987 C 248.709961 125.479996 247.810059 120.869995 245.050049 116.770004 Z M 235.030029 125.509995 C 232.959961 125.509995 231.540039 123.880005 231.5 121.459991 C 231.449951 118.899994 232.869995 117.229996 235.099976 117.240005 C 237.130005 117.240005 238.689941 118.979996 238.719971 121.259995 C 238.75 123.649994 237.140015 125.509995 235.040039 125.509995 Z"/>
                <path id="path19" fill="#062f49" stroke="none" d="M 160.619995 87.110001 C 159.589966 88.319992 158.449951 87.709991 157.23999 87.349991 C 153.969971 86.389999 150.709961 85.099991 147.359985 84.729996 C 139.52002 83.849991 132.660034 86.550003 126.630005 91.5 C 126.430054 91.669998 126.25 91.869995 126.040039 92.020004 C 124.959961 92.860001 123.969971 94.399994 122.430054 93.5 C 120.75 92.5 121.579956 90.75 122 89.410004 C 123.209961 85.529999 125.97998 82.779999 129.109985 80.470001 C 133.630005 77.149994 138.810059 75.610001 144.380005 75.470001 C 148.420044 75.619995 152.25 76.470001 155.839966 78.289993 C 158.01001 79.389999 159.77002 80.940002 160.859985 83.169998 C 161.530029 84.539993 161.680054 85.869995 160.619995 87.110001 Z"/>
                <path id="path20" fill="#062f49" stroke="none" d="M 257.75 92.990005 C 256.819946 92.709991 255.660034 92.690002 254.97998 92.119995 C 251.01001 88.800003 246.75 86.160004 241.589966 85.110001 C 236.599976 84.089996 231.800049 84.709991 227.060059 86.349991 C 225.98999 86.720001 224.910034 87.179993 223.790039 87.300003 C 221.599976 87.550003 220.290039 86.149994 221.040039 84.089996 C 221.569946 82.589996 222.560059 81.039993 223.780029 80.059998 C 227.670044 76.919998 232.25 75.539993 237.97998 75.509995 C 244.209961 75.849991 250.400024 78.089996 255.01001 83.479996 C 256.560059 85.289993 257.569946 87.649994 258.459961 89.899994 C 258.780029 90.709991 258.01001 91.940002 257.75 92.979996 Z"/>
                <path id="path21" fill="#062f49" stroke="none" d="M 166.619995 240.75 C 166.430054 241.890015 166.339966 243.049988 166.01001 244.149994 C 164.290039 249.979996 160.51001 254.080002 155.099976 256.680023 C 152.829956 257.779999 152.300049 257.559998 151.130005 255.369995 C 148.699951 250.799988 147.130005 245.98999 147.349976 240.730011 C 147.400024 239.610016 147.650024 238.5 147.810059 237.390015 C 147.97998 237.390015 148.140015 237.360016 148.310059 237.350006 C 150.640015 241.26001 152.97998 245.149994 155.400024 249.189987 C 159.800049 247.040009 162.640015 243.360016 166.640015 240.75 Z"/>
                <path id="path22" fill="#062f49" stroke="none" d="M 220.01001 255.589996 C 219.329956 258.960022 218.25 259.570007 214.98999 258.460022 C 210.02002 256.76001 205.76001 254.139999 203.699951 248.950012 C 203.619995 248.75 203.650024 248.480011 203.589966 247.899994 C 207.439941 250.269989 211.25 252.080002 215.869995 252.649994 C 216.400024 246.75 216.099976 240.940002 215.849976 235.059998 C 216.160034 235.230011 216.48999 235.299988 216.579956 235.5 C 219.719971 241.860016 221.449951 248.470001 220 255.589996 Z"/>
                <path id="path23" fill="#062f49" stroke="none" d="M 91.280029 177.98999 C 90.75 178.5 90.400024 179 89.920044 179.25 C 85.339966 181.729996 80.439941 182.87999 75.23999 182.580002 C 73.300049 182.459991 72.780029 181.769989 73.449951 180.059998 C 75.430054 175.039993 78.810059 171.139999 83.060059 167.970001 C 83.290039 168.059998 83.52002 168.139999 83.75 168.229996 C 83.02002 170.839996 82.280029 173.449997 81.390015 176.659988 C 84.680054 177.099991 87.839966 177.519989 91.27002 177.979996 Z"/>
                <path id="path24" fill="#062f49" stroke="none" d="M 85.689941 121.819992 C 81.709961 125.899994 75.280029 125.220001 72.689941 120.319992 C 76.430054 117.029999 80.859985 117.580002 85.689941 121.819992 Z"/>
                <path id="path25" fill="#062f49" stroke="none" d="M 309.380005 217.23999 L 309.380005 194.290009 C 314.119995 194.290009 318.780029 194.029999 323.410034 194.360016 C 328.609985 194.720001 331.819946 198.160004 332.380005 203.73999 C 332.609985 205.959991 332.390015 208.350006 331.780029 210.5 C 330.469971 215.100006 326.819946 216.959991 322.369995 217.190002 C 318.170044 217.399994 313.939941 217.23999 309.369995 217.23999 Z"/>
                <path id="path26" fill="#348ec3" stroke="none" d="M 66.359985 262.980011 C 63.469971 268.640015 59.699951 273.580017 54.310059 277.080017 C 52.97998 277.940002 51.469971 278.630005 49.969971 279.080017 C 45.540039 280.420013 41.959961 278.930023 39.709961 274.880005 C 36.920044 269.839996 36.859985 264.350006 37.339966 258.820007 C 37.560059 256.230011 37.900024 253.659988 38.170044 251.080002 C 38.790039 244.920013 37.030029 239.5 33.22998 234.640015 C 30.97998 231.75 28.72998 228.830017 26.97998 225.640015 C 24.209961 220.589996 23.5 215.089996 25.060059 209.450012 C 26.560059 203.98999 29.23999 202.209991 34.839966 202.950012 C 43.150024 204.029999 49.849976 208.369995 55.829956 213.839996 C 59.030029 216.769989 61.780029 220.179993 64.640015 223.450012 C 65.109985 223.980011 65.079956 224.950012 65.01001 225.839996 C 55.73999 221.600006 46.579956 217.890015 36.410034 217.080017 C 37.73999 217.799988 39.069946 218.51001 40.390015 219.23999 C 46.849976 222.839996 53.329956 226.420013 59.780029 230.049988 C 60.98999 230.73999 62.380005 231.269989 61.959961 233.290009 C 61.51001 235.380005 59.969971 234.830017 58.72998 234.950012 C 54.329956 235.380005 49.910034 235.709991 45.5 236.100006 C 44.609985 236.190002 43.719971 236.390015 42.209961 236.640015 C 47.51001 239.350006 52.569946 240.040009 57.650024 240.529999 C 59.589966 240.709991 59.97998 241.360016 60.199951 243.279999 C 60.589966 246.830017 59.25 249.189987 56.839966 251.639999 C 53.319946 255.209991 50.26001 259.220001 47 263.050018 C 47.170044 263.290009 47.349976 263.529999 47.530029 263.76001 C 52.219971 261 56.910034 258.230011 61.530029 255.5 C 63.130005 257.410004 64.819946 259.350006 66.390015 261.369995 C 66.650024 261.710022 66.579956 262.540009 66.359985 262.970001 Z"/>
                <path id="path27" fill="#ffc941" stroke="none" d="M 205.449951 193.110016 C 197.140015 200.940002 180.48999 199.360016 174.23999 187.600006 C 183.400024 182.549988 198.530029 184.279999 205.449951 193.110016 Z"/>
            </g>
        </g>
    </g>
</svg>
