<svg id="Layer_1" data-name="Layer 1" xmlns="http://www.w3.org/2000/svg" viewBox="0 0 838.69 146.62"><defs><style>.cls-1{fill:blue;}</style></defs><path class="cls-1" d="M500.64,80.11V97.53H604.55c2.91-42.67-24.38-66.46-58-66.46s-58,24.09-58,57.46c0,33.67,25.25,58.05,59.79,58.05,28.16,0,49.34-17.42,55.14-37.44H581c-5.51,9.58-16.84,17.7-32.8,17.7-22.34,0-38.9-16.54-38.9-38.31,0-21.48,16-37.74,37.15-37.74S583.64,67,583.64,88.53l8.12-8.42Zm-296-56.89h23.23V0H204.6ZM159.32,143.67h94.61V124.52H159.32ZM207.5,53.12v90.55h20.31V60.09C227.81,43.26,220,34,201.4,34H159.32V53.13H207.5ZM664.63,34H618.2V53.12h26.12l.29,90.55h20.32l-.3-60.94c0-18.58,12.49-29.6,29.89-29.6h18.29V34H698.3c-20.32,0-30.19,7.26-35.7,20.91l-2.9,7.25,4.93.87ZM384,34h29V7.84h20.31V34h45.27V53.12H433.31v71.4h45.27v19.15H442.3c-18.58,0-29.32-12.19-29.32-29V53.12H384ZM618.19,143.67H712.8V124.52H618.19Zm-474.53-72C143.66,30.2,112.9,0,70.52,0H0V143.69H70.52c42.37,0,73.14-30.2,73.14-72m186-40.63c-18,0-32.21,11-37.44,23.79V34H271.94V143.67h20.31V87.94c0-17.7,6.39-36.57,31.64-36.57,20.9,0,31.64,12.19,31.64,38v54.28h20.32v-58c0-39.46-22.36-54.54-46.16-54.54m451,115.51c33.37,0,58-24.38,58-57.76s-24.66-57.75-58-57.75c-33.67,0-58.05,24.38-58.05,57.75s24.38,57.76,58.05,57.76m0-19.74c-21.18,0-37.15-16.25-37.15-38s16-38,37.15-38,37.15,16.24,37.15,38-16,38-37.15,38M21.46,123.36v-103H67.89c31.35,0,53.69,21.77,53.69,52,0,29.6-22.34,51.09-53.69,51.09H21.46Z"/></svg>